%FSLAX42Y42*%
%MOMM*%
G71*
G01*
G75*
G04 Layer_Color=8388736*
%ADD10C,0.20*%
%ADD11C,0.40*%
%ADD12O,1.27X7.62*%
%ADD13R,1.30X1.10*%
G04:AMPARAMS|DCode=14|XSize=1.3mm|YSize=1.1mm|CornerRadius=0mm|HoleSize=0mm|Usage=FLASHONLY|Rotation=360.000|XOffset=0mm|YOffset=0mm|HoleType=Round|Shape=Octagon|*
%AMOCTAGOND14*
4,1,8,0.65,-0.28,0.65,0.28,0.38,0.55,-0.38,0.55,-0.65,0.28,-0.65,-0.28,-0.38,-0.55,0.38,-0.55,0.65,-0.28,0.0*
%
%ADD14OCTAGOND14*%

%ADD15O,2.60X0.70*%
%ADD16R,1.40X3.30*%
%ADD17R,1.50X1.40*%
%ADD18R,1.40X1.50*%
%ADD19R,1.30X0.60*%
%ADD20R,1.40X1.10*%
%ADD21R,2.60X1.10*%
%ADD22R,1.10X2.60*%
%ADD23O,0.60X2.30*%
%ADD24O,2.30X0.70*%
%ADD25O,0.24X1.80*%
%ADD26O,1.80X0.24*%
%ADD27R,0.50X1.00*%
%ADD28C,0.50*%
%ADD29C,0.25*%
%ADD30C,1.00*%
%ADD31R,2.79X3.81*%
%ADD32R,2.50X3.00*%
%ADD33O,0.30X1.80*%
%ADD34O,1.80X0.30*%
%ADD35R,1.10X1.30*%
G04:AMPARAMS|DCode=36|XSize=1.3mm|YSize=1.1mm|CornerRadius=0mm|HoleSize=0mm|Usage=FLASHONLY|Rotation=90.000|XOffset=0mm|YOffset=0mm|HoleType=Round|Shape=Octagon|*
%AMOCTAGOND36*
4,1,8,0.28,0.65,-0.28,0.65,-0.55,0.38,-0.55,-0.38,-0.28,-0.65,0.28,-0.65,0.55,-0.38,0.55,0.38,0.28,0.65,0.0*
%
%ADD36OCTAGOND36*%

%ADD37O,0.60X2.20*%
%ADD38R,0.60X1.30*%
%ADD39R,6.30X2.15*%
%ADD40R,3.30X1.40*%
%ADD41R,3.00X2.50*%
%ADD42R,1.40X1.40*%
%ADD43R,1.10X1.40*%
%ADD44R,1.70X1.10*%
%ADD45C,0.25*%
%ADD46C,2.00*%
%ADD47C,0.30*%
%ADD48C,1.60*%
%ADD49C,5.00*%
%ADD50C,1.50*%
%ADD51R,1.50X1.50*%
%ADD52R,1.50X1.50*%
%ADD53C,3.25*%
%ADD54C,2.50*%
%ADD55C,1.20*%
%ADD56C,1.27*%
%ADD57O,1.50X3.00*%
%ADD58O,3.00X1.50*%
%ADD59C,2.00*%
%ADD60O,2.00X4.00*%
%ADD61C,4.50*%
%ADD62R,81.12X10.16*%
%ADD63O,1.47X7.82*%
%ADD64R,1.50X1.30*%
G04:AMPARAMS|DCode=65|XSize=1.5mm|YSize=1.3mm|CornerRadius=0mm|HoleSize=0mm|Usage=FLASHONLY|Rotation=360.000|XOffset=0mm|YOffset=0mm|HoleType=Round|Shape=Octagon|*
%AMOCTAGOND65*
4,1,8,0.75,-0.33,0.75,0.33,0.43,0.65,-0.43,0.65,-0.75,0.33,-0.75,-0.33,-0.43,-0.65,0.43,-0.65,0.75,-0.33,0.0*
%
%ADD65OCTAGOND65*%

%ADD66O,2.80X0.90*%
%ADD67R,1.60X3.50*%
%ADD68R,1.70X1.60*%
%ADD69R,1.60X1.70*%
%ADD70R,1.50X0.80*%
%ADD71R,1.60X1.30*%
%ADD72R,2.80X1.30*%
%ADD73R,1.30X2.80*%
%ADD74O,0.80X2.50*%
%ADD75O,2.50X0.90*%
%ADD76O,0.44X2.00*%
%ADD77O,2.00X0.44*%
%ADD78R,0.70X1.20*%
%ADD79R,3.00X4.01*%
%ADD80R,2.70X3.20*%
%ADD81O,0.50X2.00*%
%ADD82O,2.00X0.50*%
%ADD83R,1.30X1.50*%
G04:AMPARAMS|DCode=84|XSize=1.5mm|YSize=1.3mm|CornerRadius=0mm|HoleSize=0mm|Usage=FLASHONLY|Rotation=90.000|XOffset=0mm|YOffset=0mm|HoleType=Round|Shape=Octagon|*
%AMOCTAGOND84*
4,1,8,0.33,0.75,-0.33,0.75,-0.65,0.43,-0.65,-0.43,-0.33,-0.75,0.33,-0.75,0.65,-0.43,0.65,0.43,0.33,0.75,0.0*
%
%ADD84OCTAGOND84*%

%ADD85O,0.80X2.40*%
%ADD86R,0.80X1.50*%
%ADD87R,6.50X2.35*%
%ADD88R,3.50X1.60*%
%ADD89R,3.20X2.70*%
%ADD90R,1.60X1.60*%
%ADD91R,1.30X1.60*%
%ADD92R,1.90X1.30*%
%ADD93C,1.80*%
%ADD94C,5.20*%
%ADD95C,1.70*%
%ADD96R,1.70X1.70*%
%ADD97R,1.70X1.70*%
%ADD98C,3.45*%
%ADD99C,2.70*%
%ADD100C,1.40*%
%ADD101C,1.47*%
%ADD102O,1.70X3.20*%
%ADD103O,3.20X1.70*%
%ADD104C,2.20*%
%ADD105O,2.20X4.20*%
%ADD106C,4.70*%
D62*
X18323Y9957D02*
D03*
X31223D02*
D03*
D63*
X14505Y10020D02*
D03*
X14759D02*
D03*
X15013D02*
D03*
X15267D02*
D03*
X15521D02*
D03*
X15775D02*
D03*
X16029D02*
D03*
X16283D02*
D03*
X16537D02*
D03*
X16791D02*
D03*
X17045D02*
D03*
X17299D02*
D03*
X17553D02*
D03*
X17807D02*
D03*
X18061D02*
D03*
X18315D02*
D03*
X18569D02*
D03*
X18823D02*
D03*
X19077D02*
D03*
X19331D02*
D03*
X19585D02*
D03*
X19839D02*
D03*
X20093D02*
D03*
X20347D02*
D03*
X20601D02*
D03*
X20855D02*
D03*
X21109D02*
D03*
X21363D02*
D03*
X21617D02*
D03*
X21871D02*
D03*
X22125D02*
D03*
X27405D02*
D03*
X27659D02*
D03*
X27913D02*
D03*
X28167D02*
D03*
X28421D02*
D03*
X28675D02*
D03*
X28929D02*
D03*
X29183D02*
D03*
X29437D02*
D03*
X29691D02*
D03*
X29945D02*
D03*
X30199D02*
D03*
X30453D02*
D03*
X30707D02*
D03*
X30961D02*
D03*
X31215D02*
D03*
X31469D02*
D03*
X31723D02*
D03*
X31977D02*
D03*
X32231D02*
D03*
X32485D02*
D03*
X32739D02*
D03*
X32993D02*
D03*
X33247D02*
D03*
X33501D02*
D03*
X33755D02*
D03*
X34009D02*
D03*
X34263D02*
D03*
X34517D02*
D03*
X34771D02*
D03*
X35025D02*
D03*
D64*
X20985Y14675D02*
D03*
X21215Y14495D02*
D03*
Y14675D02*
D03*
X33885D02*
D03*
X34115Y14495D02*
D03*
Y14675D02*
D03*
D65*
X20985Y14495D02*
D03*
X33885D02*
D03*
D66*
X15784Y12227D02*
D03*
Y12354D02*
D03*
Y12481D02*
D03*
Y12608D02*
D03*
Y12735D02*
D03*
Y12862D02*
D03*
Y12989D02*
D03*
Y13116D02*
D03*
X14864Y12227D02*
D03*
Y12354D02*
D03*
Y12481D02*
D03*
Y12608D02*
D03*
Y12735D02*
D03*
Y12862D02*
D03*
Y12989D02*
D03*
Y13116D02*
D03*
X28684Y12227D02*
D03*
Y12354D02*
D03*
Y12481D02*
D03*
Y12608D02*
D03*
Y12735D02*
D03*
Y12862D02*
D03*
Y12989D02*
D03*
Y13116D02*
D03*
X27764Y12227D02*
D03*
Y12354D02*
D03*
Y12481D02*
D03*
Y12608D02*
D03*
Y12735D02*
D03*
Y12862D02*
D03*
Y12989D02*
D03*
Y13116D02*
D03*
D67*
X21909Y11946D02*
D03*
X22289D02*
D03*
X34809D02*
D03*
X35189D02*
D03*
D68*
X22149Y15346D02*
D03*
Y15146D02*
D03*
X21949Y15346D02*
D03*
Y15546D02*
D03*
X16199Y12196D02*
D03*
Y12396D02*
D03*
X16199Y14306D02*
D03*
Y14106D02*
D03*
X35049Y15346D02*
D03*
Y15146D02*
D03*
X34849Y15346D02*
D03*
Y15546D02*
D03*
X29099Y12196D02*
D03*
Y12396D02*
D03*
X29099Y14306D02*
D03*
Y14106D02*
D03*
X19046Y19271D02*
D03*
Y19471D02*
D03*
X21386Y19231D02*
D03*
Y19031D02*
D03*
X20696Y19021D02*
D03*
Y19221D02*
D03*
X18196Y21371D02*
D03*
Y21571D02*
D03*
X17996Y21371D02*
D03*
Y21571D02*
D03*
X17796Y21371D02*
D03*
Y21571D02*
D03*
X17596Y21371D02*
D03*
Y21571D02*
D03*
X19346Y21371D02*
D03*
Y21571D02*
D03*
X19096Y21371D02*
D03*
Y21571D02*
D03*
X29526Y19271D02*
D03*
Y19471D02*
D03*
X31866Y19231D02*
D03*
Y19031D02*
D03*
X31176Y19021D02*
D03*
Y19221D02*
D03*
X28676Y21371D02*
D03*
Y21571D02*
D03*
X28476Y21371D02*
D03*
Y21571D02*
D03*
X28276Y21371D02*
D03*
Y21571D02*
D03*
X28076Y21371D02*
D03*
Y21571D02*
D03*
X29826Y21371D02*
D03*
Y21571D02*
D03*
X29576Y21371D02*
D03*
Y21571D02*
D03*
D69*
X23049Y15046D02*
D03*
X23249D02*
D03*
X23049Y15446D02*
D03*
X23249D02*
D03*
X22549Y12996D02*
D03*
X22749D02*
D03*
X22549Y12746D02*
D03*
X22749D02*
D03*
X22549Y12496D02*
D03*
X22749D02*
D03*
X22549Y12246D02*
D03*
X22749D02*
D03*
Y13846D02*
D03*
X22549D02*
D03*
X22549Y14496D02*
D03*
X22749D02*
D03*
X22549Y14746D02*
D03*
X22749D02*
D03*
X17749Y15546D02*
D03*
X17949D02*
D03*
X35949Y15046D02*
D03*
X36149D02*
D03*
X35949Y15446D02*
D03*
X36149D02*
D03*
X35449Y12996D02*
D03*
X35649D02*
D03*
X35449Y12746D02*
D03*
X35649D02*
D03*
X35449Y12496D02*
D03*
X35649D02*
D03*
X35449Y12246D02*
D03*
X35649D02*
D03*
Y13846D02*
D03*
X35449D02*
D03*
X35449Y14496D02*
D03*
X35649D02*
D03*
X35449Y14746D02*
D03*
X35649D02*
D03*
X30649Y15546D02*
D03*
X30849D02*
D03*
X21807Y18583D02*
D03*
X22007D02*
D03*
X19846Y21221D02*
D03*
X19646D02*
D03*
X19146Y17871D02*
D03*
X19346D02*
D03*
X13646Y19121D02*
D03*
X13446D02*
D03*
X13646Y19621D02*
D03*
X13446D02*
D03*
Y19371D02*
D03*
X13646D02*
D03*
X13446Y19871D02*
D03*
X13646D02*
D03*
X17696Y20921D02*
D03*
X17896D02*
D03*
X13646Y20171D02*
D03*
X13446D02*
D03*
X17086Y17921D02*
D03*
X16886D02*
D03*
Y18171D02*
D03*
X17086D02*
D03*
X32287Y18583D02*
D03*
X32487D02*
D03*
X30326Y21221D02*
D03*
X30126D02*
D03*
X29626Y17871D02*
D03*
X29826D02*
D03*
X24126Y19121D02*
D03*
X23926D02*
D03*
X24126Y19621D02*
D03*
X23926D02*
D03*
Y19371D02*
D03*
X24126D02*
D03*
X23926Y19871D02*
D03*
X24126D02*
D03*
X28176Y20921D02*
D03*
X28376D02*
D03*
X24126Y20171D02*
D03*
X23926D02*
D03*
X27566Y17921D02*
D03*
X27366D02*
D03*
Y18171D02*
D03*
X27566D02*
D03*
D70*
X22544Y15141D02*
D03*
Y14951D02*
D03*
X22754Y15046D02*
D03*
X22544Y15541D02*
D03*
Y15351D02*
D03*
X22754Y15446D02*
D03*
X35444Y15141D02*
D03*
Y14951D02*
D03*
X35654Y15046D02*
D03*
X35444Y15541D02*
D03*
Y15351D02*
D03*
X35654Y15446D02*
D03*
D71*
X20769Y14671D02*
D03*
Y14521D02*
D03*
X21419Y14671D02*
D03*
Y14521D02*
D03*
X33669Y14671D02*
D03*
Y14521D02*
D03*
X34319Y14671D02*
D03*
Y14521D02*
D03*
X19316Y19946D02*
D03*
Y20096D02*
D03*
X29796Y19946D02*
D03*
Y20096D02*
D03*
D72*
X21699Y14731D02*
D03*
Y14461D02*
D03*
X34599Y14731D02*
D03*
Y14461D02*
D03*
X20346Y19256D02*
D03*
Y18986D02*
D03*
X16846Y19606D02*
D03*
Y19336D02*
D03*
X18796Y19006D02*
D03*
Y18736D02*
D03*
X30826Y19256D02*
D03*
Y18986D02*
D03*
X27326Y19606D02*
D03*
Y19336D02*
D03*
X29276Y19006D02*
D03*
Y18736D02*
D03*
D73*
X22784Y14146D02*
D03*
X22514D02*
D03*
X22784Y13296D02*
D03*
X22514D02*
D03*
X22784Y11946D02*
D03*
X22514D02*
D03*
X35684Y14146D02*
D03*
X35414D02*
D03*
X35684Y13296D02*
D03*
X35414D02*
D03*
X35684Y11946D02*
D03*
X35414D02*
D03*
X19611Y21521D02*
D03*
X19881D02*
D03*
X30091D02*
D03*
X30361D02*
D03*
D74*
X20477Y13120D02*
D03*
X20604D02*
D03*
X20731D02*
D03*
X20858D02*
D03*
X20985D02*
D03*
X21112D02*
D03*
X21239D02*
D03*
X21366D02*
D03*
X21493D02*
D03*
X21620D02*
D03*
X21747D02*
D03*
X21874D02*
D03*
X22001D02*
D03*
X22128D02*
D03*
X20477Y14030D02*
D03*
X20604D02*
D03*
X20731D02*
D03*
X20858D02*
D03*
X20985D02*
D03*
X21112D02*
D03*
X21239D02*
D03*
X21366D02*
D03*
X21493D02*
D03*
X21620D02*
D03*
X21747D02*
D03*
X21874D02*
D03*
X22001D02*
D03*
X22128D02*
D03*
X33377Y13120D02*
D03*
X33504D02*
D03*
X33631D02*
D03*
X33758D02*
D03*
X33885D02*
D03*
X34012D02*
D03*
X34139D02*
D03*
X34266D02*
D03*
X34393D02*
D03*
X34520D02*
D03*
X34647D02*
D03*
X34774D02*
D03*
X34901D02*
D03*
X35028D02*
D03*
X33377Y14030D02*
D03*
X33504D02*
D03*
X33631D02*
D03*
X33758D02*
D03*
X33885D02*
D03*
X34012D02*
D03*
X34139D02*
D03*
X34266D02*
D03*
X34393D02*
D03*
X34520D02*
D03*
X34647D02*
D03*
X34774D02*
D03*
X34901D02*
D03*
X35028D02*
D03*
D75*
X15799Y13725D02*
D03*
Y13852D02*
D03*
Y13979D02*
D03*
Y14106D02*
D03*
Y14233D02*
D03*
Y14360D02*
D03*
Y14487D02*
D03*
Y14614D02*
D03*
Y14741D02*
D03*
Y14868D02*
D03*
X14849Y13725D02*
D03*
Y13852D02*
D03*
Y13979D02*
D03*
Y14106D02*
D03*
Y14233D02*
D03*
Y14360D02*
D03*
Y14487D02*
D03*
Y14614D02*
D03*
Y14741D02*
D03*
Y14868D02*
D03*
X28699Y13725D02*
D03*
Y13852D02*
D03*
Y13979D02*
D03*
Y14106D02*
D03*
Y14233D02*
D03*
Y14360D02*
D03*
Y14487D02*
D03*
Y14614D02*
D03*
Y14741D02*
D03*
Y14868D02*
D03*
X27749Y13725D02*
D03*
Y13852D02*
D03*
Y13979D02*
D03*
Y14106D02*
D03*
Y14233D02*
D03*
Y14360D02*
D03*
Y14487D02*
D03*
Y14614D02*
D03*
Y14741D02*
D03*
Y14868D02*
D03*
D76*
X19069Y14301D02*
D03*
X19029D02*
D03*
X18989D02*
D03*
X18949D02*
D03*
X18909D02*
D03*
X18869D02*
D03*
X18829D02*
D03*
X18789D02*
D03*
X18749D02*
D03*
X18709D02*
D03*
X18669D02*
D03*
X18629D02*
D03*
X18589D02*
D03*
X18549D02*
D03*
X18509D02*
D03*
X18469D02*
D03*
X18429D02*
D03*
X18389D02*
D03*
X18349D02*
D03*
X18309D02*
D03*
X18269D02*
D03*
X18229D02*
D03*
X18189D02*
D03*
X18149D02*
D03*
X18109D02*
D03*
Y12991D02*
D03*
X18149D02*
D03*
X18189D02*
D03*
X18229D02*
D03*
X18269D02*
D03*
X18309D02*
D03*
X18349D02*
D03*
X18389D02*
D03*
X18429D02*
D03*
X18469D02*
D03*
X18509D02*
D03*
X18549D02*
D03*
X18589D02*
D03*
X18629D02*
D03*
X18669D02*
D03*
X18709D02*
D03*
X18749D02*
D03*
X18789D02*
D03*
X18829D02*
D03*
X18869D02*
D03*
X18909D02*
D03*
X18949D02*
D03*
X18989D02*
D03*
X19029D02*
D03*
X19069D02*
D03*
X31969Y14301D02*
D03*
X31929D02*
D03*
X31889D02*
D03*
X31849D02*
D03*
X31809D02*
D03*
X31769D02*
D03*
X31729D02*
D03*
X31689D02*
D03*
X31649D02*
D03*
X31609D02*
D03*
X31569D02*
D03*
X31529D02*
D03*
X31489D02*
D03*
X31449D02*
D03*
X31409D02*
D03*
X31369D02*
D03*
X31329D02*
D03*
X31289D02*
D03*
X31249D02*
D03*
X31209D02*
D03*
X31169D02*
D03*
X31129D02*
D03*
X31089D02*
D03*
X31049D02*
D03*
X31009D02*
D03*
Y12991D02*
D03*
X31049D02*
D03*
X31089D02*
D03*
X31129D02*
D03*
X31169D02*
D03*
X31209D02*
D03*
X31249D02*
D03*
X31289D02*
D03*
X31329D02*
D03*
X31369D02*
D03*
X31409D02*
D03*
X31449D02*
D03*
X31489D02*
D03*
X31529D02*
D03*
X31569D02*
D03*
X31609D02*
D03*
X31649D02*
D03*
X31689D02*
D03*
X31729D02*
D03*
X31769D02*
D03*
X31809D02*
D03*
X31849D02*
D03*
X31889D02*
D03*
X31929D02*
D03*
X31969D02*
D03*
D77*
X17934Y14126D02*
D03*
Y14086D02*
D03*
Y14046D02*
D03*
Y14006D02*
D03*
Y13966D02*
D03*
Y13926D02*
D03*
Y13886D02*
D03*
Y13846D02*
D03*
Y13806D02*
D03*
Y13766D02*
D03*
Y13726D02*
D03*
Y13686D02*
D03*
Y13646D02*
D03*
Y13606D02*
D03*
Y13566D02*
D03*
Y13526D02*
D03*
Y13486D02*
D03*
Y13446D02*
D03*
Y13406D02*
D03*
Y13366D02*
D03*
Y13326D02*
D03*
Y13286D02*
D03*
Y13246D02*
D03*
Y13206D02*
D03*
Y13166D02*
D03*
X19244D02*
D03*
Y13206D02*
D03*
Y13246D02*
D03*
Y13286D02*
D03*
Y13326D02*
D03*
Y13366D02*
D03*
Y13406D02*
D03*
Y13446D02*
D03*
Y13486D02*
D03*
Y13526D02*
D03*
Y13566D02*
D03*
Y13606D02*
D03*
Y13646D02*
D03*
Y13686D02*
D03*
Y13726D02*
D03*
Y13766D02*
D03*
Y13806D02*
D03*
Y13846D02*
D03*
Y13886D02*
D03*
Y13926D02*
D03*
Y13966D02*
D03*
Y14006D02*
D03*
Y14046D02*
D03*
Y14086D02*
D03*
Y14126D02*
D03*
X30834D02*
D03*
Y14086D02*
D03*
Y14046D02*
D03*
Y14006D02*
D03*
Y13966D02*
D03*
Y13926D02*
D03*
Y13886D02*
D03*
Y13846D02*
D03*
Y13806D02*
D03*
Y13766D02*
D03*
Y13726D02*
D03*
Y13686D02*
D03*
Y13646D02*
D03*
Y13606D02*
D03*
Y13566D02*
D03*
Y13526D02*
D03*
Y13486D02*
D03*
Y13446D02*
D03*
Y13406D02*
D03*
Y13366D02*
D03*
Y13326D02*
D03*
Y13286D02*
D03*
Y13246D02*
D03*
Y13206D02*
D03*
Y13166D02*
D03*
X32144D02*
D03*
Y13206D02*
D03*
Y13246D02*
D03*
Y13286D02*
D03*
Y13326D02*
D03*
Y13366D02*
D03*
Y13406D02*
D03*
Y13446D02*
D03*
Y13486D02*
D03*
Y13526D02*
D03*
Y13566D02*
D03*
Y13606D02*
D03*
Y13646D02*
D03*
Y13686D02*
D03*
Y13726D02*
D03*
Y13766D02*
D03*
Y13806D02*
D03*
Y13846D02*
D03*
Y13886D02*
D03*
Y13926D02*
D03*
Y13966D02*
D03*
Y14006D02*
D03*
Y14046D02*
D03*
Y14086D02*
D03*
Y14126D02*
D03*
D78*
X22119Y11114D02*
D03*
X22039D02*
D03*
X21959D02*
D03*
X21879D02*
D03*
Y11276D02*
D03*
X21959D02*
D03*
X22039D02*
D03*
X22119D02*
D03*
X21669D02*
D03*
X21589D02*
D03*
X21509D02*
D03*
X21429D02*
D03*
Y11114D02*
D03*
X21509D02*
D03*
X21589D02*
D03*
X21669D02*
D03*
X19269D02*
D03*
X19189D02*
D03*
X19109D02*
D03*
X19029D02*
D03*
Y11276D02*
D03*
X19109D02*
D03*
X19189D02*
D03*
X19269D02*
D03*
X18819D02*
D03*
X18739D02*
D03*
X18659D02*
D03*
X18579D02*
D03*
Y11114D02*
D03*
X18659D02*
D03*
X18739D02*
D03*
X18819D02*
D03*
X17369D02*
D03*
X17289D02*
D03*
X17209D02*
D03*
X17129D02*
D03*
Y11276D02*
D03*
X17209D02*
D03*
X17289D02*
D03*
X17369D02*
D03*
X16919D02*
D03*
X16839D02*
D03*
X16759D02*
D03*
X16679D02*
D03*
Y11114D02*
D03*
X16759D02*
D03*
X16839D02*
D03*
X16919D02*
D03*
X16179Y11279D02*
D03*
X16259D02*
D03*
X16339D02*
D03*
X16419D02*
D03*
Y11116D02*
D03*
X16339D02*
D03*
X16259D02*
D03*
X16179D02*
D03*
X20929D02*
D03*
X21009D02*
D03*
X21089D02*
D03*
X21169D02*
D03*
Y11279D02*
D03*
X21089D02*
D03*
X21009D02*
D03*
X20929D02*
D03*
X20479D02*
D03*
X20559D02*
D03*
X20639D02*
D03*
X20719D02*
D03*
Y11116D02*
D03*
X20639D02*
D03*
X20559D02*
D03*
X20479D02*
D03*
X19979D02*
D03*
X20059D02*
D03*
X20139D02*
D03*
X20219D02*
D03*
Y11279D02*
D03*
X20139D02*
D03*
X20059D02*
D03*
X19979D02*
D03*
X19529D02*
D03*
X19609D02*
D03*
X19689D02*
D03*
X19769D02*
D03*
Y11116D02*
D03*
X19689D02*
D03*
X19609D02*
D03*
X19529D02*
D03*
X18079D02*
D03*
X18159D02*
D03*
X18239D02*
D03*
X18319D02*
D03*
Y11279D02*
D03*
X18239D02*
D03*
X18159D02*
D03*
X18079D02*
D03*
X17629D02*
D03*
X17709D02*
D03*
X17789D02*
D03*
X17869D02*
D03*
Y11116D02*
D03*
X17789D02*
D03*
X17709D02*
D03*
X17629D02*
D03*
X15919Y11276D02*
D03*
X15839D02*
D03*
X15759D02*
D03*
X15679D02*
D03*
Y11114D02*
D03*
X15759D02*
D03*
X15839D02*
D03*
X15919D02*
D03*
X35019D02*
D03*
X34939D02*
D03*
X34859D02*
D03*
X34779D02*
D03*
Y11276D02*
D03*
X34859D02*
D03*
X34939D02*
D03*
X35019D02*
D03*
X34569D02*
D03*
X34489D02*
D03*
X34409D02*
D03*
X34329D02*
D03*
Y11114D02*
D03*
X34409D02*
D03*
X34489D02*
D03*
X34569D02*
D03*
X32169D02*
D03*
X32089D02*
D03*
X32009D02*
D03*
X31929D02*
D03*
Y11276D02*
D03*
X32009D02*
D03*
X32089D02*
D03*
X32169D02*
D03*
X31719D02*
D03*
X31639D02*
D03*
X31559D02*
D03*
X31479D02*
D03*
Y11114D02*
D03*
X31559D02*
D03*
X31639D02*
D03*
X31719D02*
D03*
X30269D02*
D03*
X30189D02*
D03*
X30109D02*
D03*
X30029D02*
D03*
Y11276D02*
D03*
X30109D02*
D03*
X30189D02*
D03*
X30269D02*
D03*
X29819D02*
D03*
X29739D02*
D03*
X29659D02*
D03*
X29579D02*
D03*
Y11114D02*
D03*
X29659D02*
D03*
X29739D02*
D03*
X29819D02*
D03*
X29079Y11279D02*
D03*
X29159D02*
D03*
X29239D02*
D03*
X29319D02*
D03*
Y11116D02*
D03*
X29239D02*
D03*
X29159D02*
D03*
X29079D02*
D03*
X33829D02*
D03*
X33909D02*
D03*
X33989D02*
D03*
X34069D02*
D03*
Y11279D02*
D03*
X33989D02*
D03*
X33909D02*
D03*
X33829D02*
D03*
X33379D02*
D03*
X33459D02*
D03*
X33539D02*
D03*
X33619D02*
D03*
Y11116D02*
D03*
X33539D02*
D03*
X33459D02*
D03*
X33379D02*
D03*
X32879D02*
D03*
X32959D02*
D03*
X33039D02*
D03*
X33119D02*
D03*
Y11279D02*
D03*
X33039D02*
D03*
X32959D02*
D03*
X32879D02*
D03*
X32429D02*
D03*
X32509D02*
D03*
X32589D02*
D03*
X32669D02*
D03*
Y11116D02*
D03*
X32589D02*
D03*
X32509D02*
D03*
X32429D02*
D03*
X30979D02*
D03*
X31059D02*
D03*
X31139D02*
D03*
X31219D02*
D03*
Y11279D02*
D03*
X31139D02*
D03*
X31059D02*
D03*
X30979D02*
D03*
X30529D02*
D03*
X30609D02*
D03*
X30689D02*
D03*
X30769D02*
D03*
Y11116D02*
D03*
X30689D02*
D03*
X30609D02*
D03*
X30529D02*
D03*
X28819Y11276D02*
D03*
X28739D02*
D03*
X28659D02*
D03*
X28579D02*
D03*
Y11114D02*
D03*
X28659D02*
D03*
X28739D02*
D03*
X28819D02*
D03*
D79*
X15746Y20571D02*
D03*
X16458D02*
D03*
X16446Y21421D02*
D03*
X15733D02*
D03*
X16446Y22071D02*
D03*
X15733D02*
D03*
X26226Y20571D02*
D03*
X26938D02*
D03*
X26926Y21421D02*
D03*
X26213D02*
D03*
X26926Y22071D02*
D03*
X26213D02*
D03*
D80*
X15171Y21701D02*
D03*
Y21071D02*
D03*
X25651Y21701D02*
D03*
Y21071D02*
D03*
D81*
X17371Y20476D02*
D03*
X17421D02*
D03*
X17471D02*
D03*
X17521D02*
D03*
X17571D02*
D03*
X17621D02*
D03*
X17671D02*
D03*
X17721D02*
D03*
X17771D02*
D03*
X17821D02*
D03*
X17871D02*
D03*
X17921D02*
D03*
X17971D02*
D03*
X18021D02*
D03*
X18071D02*
D03*
X18121D02*
D03*
Y19366D02*
D03*
X18071D02*
D03*
X18021D02*
D03*
X17971D02*
D03*
X17921D02*
D03*
X17871D02*
D03*
X17821D02*
D03*
X17771D02*
D03*
X17721D02*
D03*
X17671D02*
D03*
X17621D02*
D03*
X17571D02*
D03*
X17521D02*
D03*
X17471D02*
D03*
X17421D02*
D03*
X17371D02*
D03*
X27851Y20476D02*
D03*
X27901D02*
D03*
X27951D02*
D03*
X28001D02*
D03*
X28051D02*
D03*
X28101D02*
D03*
X28151D02*
D03*
X28201D02*
D03*
X28251D02*
D03*
X28301D02*
D03*
X28351D02*
D03*
X28401D02*
D03*
X28451D02*
D03*
X28501D02*
D03*
X28551D02*
D03*
X28601D02*
D03*
Y19366D02*
D03*
X28551D02*
D03*
X28501D02*
D03*
X28451D02*
D03*
X28401D02*
D03*
X28351D02*
D03*
X28301D02*
D03*
X28251D02*
D03*
X28201D02*
D03*
X28151D02*
D03*
X28101D02*
D03*
X28051D02*
D03*
X28001D02*
D03*
X27951D02*
D03*
X27901D02*
D03*
X27851D02*
D03*
D82*
X18301Y20296D02*
D03*
Y20246D02*
D03*
Y20196D02*
D03*
Y20146D02*
D03*
Y20096D02*
D03*
Y20046D02*
D03*
Y19996D02*
D03*
Y19946D02*
D03*
Y19896D02*
D03*
Y19846D02*
D03*
Y19796D02*
D03*
Y19746D02*
D03*
Y19696D02*
D03*
Y19646D02*
D03*
Y19596D02*
D03*
Y19546D02*
D03*
X17191D02*
D03*
Y19596D02*
D03*
Y19646D02*
D03*
Y19696D02*
D03*
Y19746D02*
D03*
Y19796D02*
D03*
Y19846D02*
D03*
Y19896D02*
D03*
Y19946D02*
D03*
Y19996D02*
D03*
Y20046D02*
D03*
Y20096D02*
D03*
Y20146D02*
D03*
Y20196D02*
D03*
Y20246D02*
D03*
Y20296D02*
D03*
X28781D02*
D03*
Y20246D02*
D03*
Y20196D02*
D03*
Y20146D02*
D03*
Y20096D02*
D03*
Y20046D02*
D03*
Y19996D02*
D03*
Y19946D02*
D03*
Y19896D02*
D03*
Y19846D02*
D03*
Y19796D02*
D03*
Y19746D02*
D03*
Y19696D02*
D03*
Y19646D02*
D03*
Y19596D02*
D03*
Y19546D02*
D03*
X27671D02*
D03*
Y19596D02*
D03*
Y19646D02*
D03*
Y19696D02*
D03*
Y19746D02*
D03*
Y19796D02*
D03*
Y19846D02*
D03*
Y19896D02*
D03*
Y19946D02*
D03*
Y19996D02*
D03*
Y20046D02*
D03*
Y20096D02*
D03*
Y20146D02*
D03*
Y20196D02*
D03*
Y20246D02*
D03*
Y20296D02*
D03*
D83*
X18911Y19946D02*
D03*
X19091Y20176D02*
D03*
X18911D02*
D03*
X29391Y19946D02*
D03*
X29571Y20176D02*
D03*
X29391D02*
D03*
D84*
X19091Y19946D02*
D03*
X29571D02*
D03*
D85*
X19486Y18911D02*
D03*
X19359D02*
D03*
X19232D02*
D03*
X19105D02*
D03*
X19486Y18231D02*
D03*
X19359D02*
D03*
X19232D02*
D03*
X19105D02*
D03*
X16386Y20031D02*
D03*
X16259D02*
D03*
X16132D02*
D03*
X16005D02*
D03*
X16386Y19551D02*
D03*
X16259D02*
D03*
X16132D02*
D03*
X16005D02*
D03*
X29966Y18911D02*
D03*
X29839D02*
D03*
X29712D02*
D03*
X29585D02*
D03*
X29966Y18231D02*
D03*
X29839D02*
D03*
X29712D02*
D03*
X29585D02*
D03*
X26866Y20031D02*
D03*
X26739D02*
D03*
X26612D02*
D03*
X26485D02*
D03*
X26866Y19551D02*
D03*
X26739D02*
D03*
X26612D02*
D03*
X26485D02*
D03*
D86*
X13546Y20576D02*
D03*
X13641Y20366D02*
D03*
X13451D02*
D03*
X16986Y17416D02*
D03*
X16891Y17626D02*
D03*
X17081D02*
D03*
X24026Y20576D02*
D03*
X24121Y20366D02*
D03*
X23931D02*
D03*
X27466Y17416D02*
D03*
X27371Y17626D02*
D03*
X27561D02*
D03*
D87*
X15096Y19991D02*
D03*
Y19576D02*
D03*
X25576Y19991D02*
D03*
Y19576D02*
D03*
D88*
X18796Y21231D02*
D03*
Y21611D02*
D03*
X29276Y21231D02*
D03*
Y21611D02*
D03*
D89*
X15726Y19071D02*
D03*
X15096D02*
D03*
X26206D02*
D03*
X25576D02*
D03*
D90*
X18446Y21561D02*
D03*
Y21381D02*
D03*
X17346Y21561D02*
D03*
Y21381D02*
D03*
X15696Y19881D02*
D03*
Y19701D02*
D03*
X28926Y21561D02*
D03*
Y21381D02*
D03*
X27826Y21561D02*
D03*
Y21381D02*
D03*
X26176Y19881D02*
D03*
Y19701D02*
D03*
D91*
X19066Y20396D02*
D03*
X18916D02*
D03*
X29546D02*
D03*
X29396D02*
D03*
D92*
X21046Y18986D02*
D03*
Y19256D02*
D03*
X31526Y18986D02*
D03*
Y19256D02*
D03*
D93*
X24649Y14073D02*
D03*
Y13819D02*
D03*
Y14573D02*
D03*
Y14319D02*
D03*
X37549Y14073D02*
D03*
Y13819D02*
D03*
Y14573D02*
D03*
Y14319D02*
D03*
D94*
X24449Y15046D02*
D03*
Y10546D02*
D03*
X37349Y15046D02*
D03*
Y10546D02*
D03*
X21246Y16771D02*
D03*
Y21871D02*
D03*
X14246D02*
D03*
Y16771D02*
D03*
X14946Y22871D02*
D03*
X20546D02*
D03*
X15746Y16571D02*
D03*
X19746D02*
D03*
X31726Y16771D02*
D03*
Y21871D02*
D03*
X24726D02*
D03*
Y16771D02*
D03*
X25426Y22871D02*
D03*
X31026D02*
D03*
X26226Y16571D02*
D03*
X30226D02*
D03*
D95*
X16179Y15546D02*
D03*
X16433D02*
D03*
X16687D02*
D03*
X16941D02*
D03*
X17195D02*
D03*
X12949Y11792D02*
D03*
Y11538D02*
D03*
Y11284D02*
D03*
X13743Y13192D02*
D03*
Y15192D02*
D03*
X23589Y13131D02*
D03*
X24562Y12435D02*
D03*
X24714Y13192D02*
D03*
X23589Y12877D02*
D03*
Y12623D02*
D03*
X24714Y12181D02*
D03*
X23335Y13004D02*
D03*
Y12750D02*
D03*
Y12496D02*
D03*
X24562Y13446D02*
D03*
X23335Y13258D02*
D03*
X29079Y15546D02*
D03*
X29333D02*
D03*
X29587D02*
D03*
X29841D02*
D03*
X30095D02*
D03*
X25849Y11792D02*
D03*
Y11538D02*
D03*
Y11284D02*
D03*
X26643Y13192D02*
D03*
Y15192D02*
D03*
X36489Y13131D02*
D03*
X37462Y12435D02*
D03*
X37614Y13192D02*
D03*
X36489Y12877D02*
D03*
Y12623D02*
D03*
X37614Y12181D02*
D03*
X36235Y13004D02*
D03*
Y12750D02*
D03*
Y12496D02*
D03*
X37462Y13446D02*
D03*
X36235Y13258D02*
D03*
X17054Y16571D02*
D03*
X16800D02*
D03*
X19442Y23071D02*
D03*
X17301Y22082D02*
D03*
X17113Y23309D02*
D03*
X18063Y22082D02*
D03*
X17809D02*
D03*
X17555D02*
D03*
X18378Y23462D02*
D03*
X17936Y22336D02*
D03*
X17682D02*
D03*
X17367Y23462D02*
D03*
X18124Y23309D02*
D03*
X17428Y22336D02*
D03*
X22296Y20641D02*
D03*
Y20387D02*
D03*
Y20133D02*
D03*
Y19879D02*
D03*
Y19625D02*
D03*
X22288Y18075D02*
D03*
Y18329D02*
D03*
X14346Y20895D02*
D03*
Y20641D02*
D03*
Y20387D02*
D03*
Y20133D02*
D03*
Y19625D02*
D03*
Y19879D02*
D03*
X17921Y16825D02*
D03*
X18175Y16571D02*
D03*
Y16825D02*
D03*
X18429Y16571D02*
D03*
Y16825D02*
D03*
X18683Y16571D02*
D03*
Y16825D02*
D03*
X18937Y16571D02*
D03*
Y16825D02*
D03*
X27534Y16571D02*
D03*
X27280D02*
D03*
X29922Y23071D02*
D03*
X27781Y22082D02*
D03*
X27593Y23309D02*
D03*
X28543Y22082D02*
D03*
X28289D02*
D03*
X28035D02*
D03*
X28858Y23462D02*
D03*
X28416Y22336D02*
D03*
X28162D02*
D03*
X27847Y23462D02*
D03*
X28604Y23309D02*
D03*
X27908Y22336D02*
D03*
X32776Y20641D02*
D03*
Y20387D02*
D03*
Y20133D02*
D03*
Y19879D02*
D03*
Y19625D02*
D03*
X32768Y18075D02*
D03*
Y18329D02*
D03*
X24826Y20895D02*
D03*
Y20641D02*
D03*
Y20387D02*
D03*
Y20133D02*
D03*
Y19625D02*
D03*
Y19879D02*
D03*
X28401Y16825D02*
D03*
X28655Y16571D02*
D03*
Y16825D02*
D03*
X28909Y16571D02*
D03*
Y16825D02*
D03*
X29163Y16571D02*
D03*
Y16825D02*
D03*
X29417Y16571D02*
D03*
Y16825D02*
D03*
X16050Y24696D02*
D03*
X16230D02*
D03*
X16410D02*
D03*
X16590D02*
D03*
X16770D02*
D03*
X16950D02*
D03*
X13000Y30296D02*
D03*
X13200D02*
D03*
X20000D02*
D03*
X19800D02*
D03*
X13100Y28820D02*
D03*
Y28566D02*
D03*
Y28312D02*
D03*
Y28058D02*
D03*
Y27550D02*
D03*
Y27804D02*
D03*
X24050Y24696D02*
D03*
X24230D02*
D03*
X24410D02*
D03*
X24590D02*
D03*
X24770D02*
D03*
X24950D02*
D03*
X21000Y30296D02*
D03*
X21200D02*
D03*
X28000D02*
D03*
X27800D02*
D03*
X21100Y28820D02*
D03*
Y28566D02*
D03*
Y28312D02*
D03*
Y28058D02*
D03*
Y27550D02*
D03*
Y27804D02*
D03*
X32050Y24696D02*
D03*
X32230D02*
D03*
X32410D02*
D03*
X32590D02*
D03*
X32770D02*
D03*
X32950D02*
D03*
X29000Y30296D02*
D03*
X29200D02*
D03*
X36000D02*
D03*
X35800D02*
D03*
X29100Y28820D02*
D03*
Y28566D02*
D03*
Y28312D02*
D03*
Y28058D02*
D03*
Y27550D02*
D03*
Y27804D02*
D03*
D96*
X17449Y15546D02*
D03*
X30349D02*
D03*
X16546Y16571D02*
D03*
X19696Y23071D02*
D03*
X18190Y22336D02*
D03*
X17921Y16571D02*
D03*
X27026D02*
D03*
X30176Y23071D02*
D03*
X28670Y22336D02*
D03*
X28401Y16571D02*
D03*
D97*
X12949Y12046D02*
D03*
X23589Y12369D02*
D03*
X25849Y12046D02*
D03*
X36489Y12369D02*
D03*
X22296Y19371D02*
D03*
X22288Y18583D02*
D03*
X14346Y19371D02*
D03*
X32776D02*
D03*
X32768Y18583D02*
D03*
X24826Y19371D02*
D03*
X13100Y27296D02*
D03*
X21100D02*
D03*
X29100D02*
D03*
D98*
X24224Y12242D02*
D03*
Y13385D02*
D03*
X37124Y12242D02*
D03*
Y13385D02*
D03*
X17174Y22971D02*
D03*
X18317D02*
D03*
X27654D02*
D03*
X28797D02*
D03*
D99*
X23894Y12026D02*
D03*
Y13600D02*
D03*
X36794Y12026D02*
D03*
Y13600D02*
D03*
X16958Y22641D02*
D03*
X18533D02*
D03*
X27438D02*
D03*
X29013D02*
D03*
D100*
X17989Y12146D02*
D03*
X18599Y12096D02*
D03*
X18549Y11646D02*
D03*
Y10796D02*
D03*
X18649Y10946D02*
D03*
X18849D02*
D03*
X17249Y11996D02*
D03*
X17352Y11843D02*
D03*
X17399Y12196D02*
D03*
X18749Y10796D02*
D03*
X17099Y14271D02*
D03*
X15499Y14206D02*
D03*
X16349Y14696D02*
D03*
X19449Y12096D02*
D03*
X19349Y14396D02*
D03*
X18799Y14046D02*
D03*
X18199Y13246D02*
D03*
X18399D02*
D03*
X18999Y13446D02*
D03*
X19449Y12846D02*
D03*
X19709Y12396D02*
D03*
X19699Y13446D02*
D03*
X19049Y12696D02*
D03*
X18589Y12396D02*
D03*
X17299Y12346D02*
D03*
Y12546D02*
D03*
X17449Y12646D02*
D03*
X17299Y12746D02*
D03*
X17889Y12896D02*
D03*
X17449Y12896D02*
D03*
X17299Y13046D02*
D03*
X17449Y13146D02*
D03*
X16195Y13046D02*
D03*
X15546Y13986D02*
D03*
X16099Y13696D02*
D03*
X16199Y14596D02*
D03*
X16694D02*
D03*
X16859Y14996D02*
D03*
X17199Y13306D02*
D03*
X17099Y13696D02*
D03*
X17299Y14146D02*
D03*
X17449Y14246D02*
D03*
X17449Y14596D02*
D03*
X17449Y14996D02*
D03*
X18799Y13446D02*
D03*
Y13646D02*
D03*
Y13846D02*
D03*
X18399Y13446D02*
D03*
X18599D02*
D03*
Y13846D02*
D03*
X18399D02*
D03*
Y13646D02*
D03*
X18099Y15546D02*
D03*
X18049Y14896D02*
D03*
X18149Y15046D02*
D03*
X18249Y14896D02*
D03*
X18349Y15046D02*
D03*
X18549Y15396D02*
D03*
X18749D02*
D03*
X18899Y14646D02*
D03*
X19049Y15046D02*
D03*
X19149Y14896D02*
D03*
X19249Y15046D02*
D03*
X19346Y14896D02*
D03*
X19449Y15046D02*
D03*
X19549Y14896D02*
D03*
X20299Y15246D02*
D03*
X20399Y15096D02*
D03*
X19649Y15046D02*
D03*
X19799Y14796D02*
D03*
Y14596D02*
D03*
X19949Y14696D02*
D03*
X19799Y13996D02*
D03*
Y14196D02*
D03*
X19949Y14296D02*
D03*
Y14096D02*
D03*
Y13896D02*
D03*
X19799Y13796D02*
D03*
X19949Y13696D02*
D03*
X21649Y12746D02*
D03*
X21297Y12648D02*
D03*
X20949Y12846D02*
D03*
X21112Y12900D02*
D03*
X20731Y12899D02*
D03*
X20549Y13396D02*
D03*
Y13576D02*
D03*
X21149Y13746D02*
D03*
X22349Y15346D02*
D03*
Y14946D02*
D03*
X22954Y13956D02*
D03*
X21949Y13396D02*
D03*
Y13746D02*
D03*
X22128D02*
D03*
X22349Y14146D02*
D03*
X22949Y13256D02*
D03*
X22129Y12496D02*
D03*
X22349Y12496D02*
D03*
X21199Y11496D02*
D03*
X21099Y11646D02*
D03*
X20999Y11496D02*
D03*
X20899Y11646D02*
D03*
X20849Y12146D02*
D03*
X20649Y12146D02*
D03*
X19749Y11646D02*
D03*
X19549D02*
D03*
X19299Y11496D02*
D03*
X18299Y12246D02*
D03*
X18399Y12096D02*
D03*
X17549Y11596D02*
D03*
X17399Y10946D02*
D03*
X17299Y10796D02*
D03*
X17199Y10946D02*
D03*
X17099Y10796D02*
D03*
X16949Y10946D02*
D03*
X16849Y10796D02*
D03*
X16749Y10946D02*
D03*
X16649Y10796D02*
D03*
X16274Y11946D02*
D03*
X16249Y11646D02*
D03*
X16199Y10796D02*
D03*
X16099Y10946D02*
D03*
X15949Y10796D02*
D03*
X14509Y10796D02*
D03*
X15013Y10796D02*
D03*
X15549Y11346D02*
D03*
X15349Y11896D02*
D03*
Y11696D02*
D03*
X15013Y11446D02*
D03*
X18999Y10796D02*
D03*
X19099Y10946D02*
D03*
X19199Y10796D02*
D03*
X19299Y10946D02*
D03*
X21399Y10946D02*
D03*
X21499Y10796D02*
D03*
X21599Y10946D02*
D03*
X21699Y10796D02*
D03*
X21799Y10946D02*
D03*
X21899Y10796D02*
D03*
X21999Y10946D02*
D03*
X22123Y10796D02*
D03*
X20269Y12086D02*
D03*
X20149Y11646D02*
D03*
X19949D02*
D03*
X19099Y11496D02*
D03*
X19649D02*
D03*
X19849D02*
D03*
X20249D02*
D03*
X20049D02*
D03*
X18649D02*
D03*
X18999Y11646D02*
D03*
X19199D02*
D03*
X16849Y14796D02*
D03*
X17299Y14696D02*
D03*
X16549Y11346D02*
D03*
X17299Y13696D02*
D03*
Y14896D02*
D03*
X15498Y12398D02*
D03*
X15949Y11896D02*
D03*
X15549D02*
D03*
X15749D02*
D03*
X15699Y10796D02*
D03*
X15369Y13116D02*
D03*
X19124Y12121D02*
D03*
X15224Y13371D02*
D03*
X22949Y11946D02*
D03*
X18449Y10946D02*
D03*
X18999Y13246D02*
D03*
X15349Y11196D02*
D03*
X17499D02*
D03*
X15224Y12990D02*
D03*
X14599Y13371D02*
D03*
X20749Y13746D02*
D03*
X20859Y14274D02*
D03*
X21299Y14279D02*
D03*
X18199Y13846D02*
D03*
X17949Y14297D02*
D03*
X18198Y14048D02*
D03*
X16199Y12846D02*
D03*
Y12646D02*
D03*
Y13246D02*
D03*
Y13446D02*
D03*
X13949Y10796D02*
D03*
X13449D02*
D03*
Y11046D02*
D03*
X13949D02*
D03*
X21449Y12744D02*
D03*
X21549Y12594D02*
D03*
X15199Y12227D02*
D03*
X15199Y12446D02*
D03*
X15499Y12746D02*
D03*
X15999Y13446D02*
D03*
Y13246D02*
D03*
X14499Y11046D02*
D03*
X13949Y11796D02*
D03*
Y12296D02*
D03*
Y12796D02*
D03*
X14449Y11796D02*
D03*
Y12296D02*
D03*
X13949Y13296D02*
D03*
X13449Y12796D02*
D03*
Y12296D02*
D03*
X12949D02*
D03*
Y12796D02*
D03*
Y13296D02*
D03*
X13449D02*
D03*
Y13796D02*
D03*
X12949D02*
D03*
Y14296D02*
D03*
X13449D02*
D03*
Y14796D02*
D03*
X12949D02*
D03*
Y15296D02*
D03*
X13449D02*
D03*
X13949Y14796D02*
D03*
Y14296D02*
D03*
X14449Y14796D02*
D03*
Y15296D02*
D03*
X14949D02*
D03*
X15199Y14796D02*
D03*
Y14296D02*
D03*
X13949Y13796D02*
D03*
X15699Y15296D02*
D03*
X15949D02*
D03*
Y15046D02*
D03*
X15699D02*
D03*
X30889Y12146D02*
D03*
X31499Y12096D02*
D03*
X31449Y11646D02*
D03*
Y10796D02*
D03*
X31549Y10946D02*
D03*
X31749D02*
D03*
X30149Y11996D02*
D03*
X30252Y11843D02*
D03*
X30299Y12196D02*
D03*
X31649Y10796D02*
D03*
X29999Y14271D02*
D03*
X28399Y14206D02*
D03*
X29249Y14696D02*
D03*
X32349Y12096D02*
D03*
X32249Y14396D02*
D03*
X31699Y14046D02*
D03*
X31099Y13246D02*
D03*
X31299D02*
D03*
X31899Y13446D02*
D03*
X32349Y12846D02*
D03*
X32609Y12396D02*
D03*
X32599Y13446D02*
D03*
X31949Y12696D02*
D03*
X31489Y12396D02*
D03*
X30199Y12346D02*
D03*
Y12546D02*
D03*
X30349Y12646D02*
D03*
X30199Y12746D02*
D03*
X30789Y12896D02*
D03*
X30349Y12896D02*
D03*
X30199Y13046D02*
D03*
X30349Y13146D02*
D03*
X29095Y13046D02*
D03*
X28446Y13986D02*
D03*
X28999Y13696D02*
D03*
X29099Y14596D02*
D03*
X29594D02*
D03*
X29759Y14996D02*
D03*
X30099Y13306D02*
D03*
X29999Y13696D02*
D03*
X30199Y14146D02*
D03*
X30349Y14246D02*
D03*
X30349Y14596D02*
D03*
X30349Y14996D02*
D03*
X31699Y13446D02*
D03*
Y13646D02*
D03*
Y13846D02*
D03*
X31299Y13446D02*
D03*
X31499D02*
D03*
Y13846D02*
D03*
X31299D02*
D03*
Y13646D02*
D03*
X30999Y15546D02*
D03*
X30949Y14896D02*
D03*
X31049Y15046D02*
D03*
X31149Y14896D02*
D03*
X31249Y15046D02*
D03*
X31449Y15396D02*
D03*
X31649D02*
D03*
X31799Y14646D02*
D03*
X31949Y15046D02*
D03*
X32049Y14896D02*
D03*
X32149Y15046D02*
D03*
X32246Y14896D02*
D03*
X32349Y15046D02*
D03*
X32449Y14896D02*
D03*
X33199Y15246D02*
D03*
X33299Y15096D02*
D03*
X32549Y15046D02*
D03*
X32699Y14796D02*
D03*
Y14596D02*
D03*
X32849Y14696D02*
D03*
X32699Y13996D02*
D03*
Y14196D02*
D03*
X32849Y14296D02*
D03*
Y14096D02*
D03*
Y13896D02*
D03*
X32699Y13796D02*
D03*
X32849Y13696D02*
D03*
X34549Y12746D02*
D03*
X34197Y12648D02*
D03*
X33849Y12846D02*
D03*
X34012Y12900D02*
D03*
X33631Y12899D02*
D03*
X33449Y13396D02*
D03*
Y13576D02*
D03*
X34049Y13746D02*
D03*
X35249Y15346D02*
D03*
Y14946D02*
D03*
X35854Y13956D02*
D03*
X34849Y13396D02*
D03*
Y13746D02*
D03*
X35028D02*
D03*
X35249Y14146D02*
D03*
X35849Y13256D02*
D03*
X35029Y12496D02*
D03*
X35249Y12496D02*
D03*
X34099Y11496D02*
D03*
X33999Y11646D02*
D03*
X33899Y11496D02*
D03*
X33799Y11646D02*
D03*
X33749Y12146D02*
D03*
X33549Y12146D02*
D03*
X32649Y11646D02*
D03*
X32449D02*
D03*
X32199Y11496D02*
D03*
X31199Y12246D02*
D03*
X31299Y12096D02*
D03*
X30449Y11596D02*
D03*
X30299Y10946D02*
D03*
X30199Y10796D02*
D03*
X30099Y10946D02*
D03*
X29999Y10796D02*
D03*
X29849Y10946D02*
D03*
X29749Y10796D02*
D03*
X29649Y10946D02*
D03*
X29549Y10796D02*
D03*
X29174Y11946D02*
D03*
X29149Y11646D02*
D03*
X29099Y10796D02*
D03*
X28999Y10946D02*
D03*
X28849Y10796D02*
D03*
X27409Y10796D02*
D03*
X27913Y10796D02*
D03*
X28449Y11346D02*
D03*
X28249Y11896D02*
D03*
Y11696D02*
D03*
X27913Y11446D02*
D03*
X31899Y10796D02*
D03*
X31999Y10946D02*
D03*
X32099Y10796D02*
D03*
X32199Y10946D02*
D03*
X34299Y10946D02*
D03*
X34399Y10796D02*
D03*
X34499Y10946D02*
D03*
X34599Y10796D02*
D03*
X34699Y10946D02*
D03*
X34799Y10796D02*
D03*
X34899Y10946D02*
D03*
X35023Y10796D02*
D03*
X33169Y12086D02*
D03*
X33049Y11646D02*
D03*
X32849D02*
D03*
X31999Y11496D02*
D03*
X32549D02*
D03*
X32749D02*
D03*
X33149D02*
D03*
X32949D02*
D03*
X31549D02*
D03*
X31899Y11646D02*
D03*
X32099D02*
D03*
X29749Y14796D02*
D03*
X30199Y14696D02*
D03*
X29449Y11346D02*
D03*
X30199Y13696D02*
D03*
Y14896D02*
D03*
X28398Y12398D02*
D03*
X28849Y11896D02*
D03*
X28449D02*
D03*
X28649D02*
D03*
X28599Y10796D02*
D03*
X28269Y13116D02*
D03*
X32024Y12121D02*
D03*
X28124Y13371D02*
D03*
X35849Y11946D02*
D03*
X31349Y10946D02*
D03*
X31899Y13246D02*
D03*
X28249Y11196D02*
D03*
X30399D02*
D03*
X28124Y12990D02*
D03*
X27499Y13371D02*
D03*
X33649Y13746D02*
D03*
X33759Y14274D02*
D03*
X34199Y14279D02*
D03*
X31099Y13846D02*
D03*
X30849Y14297D02*
D03*
X31098Y14048D02*
D03*
X29099Y12846D02*
D03*
Y12646D02*
D03*
Y13246D02*
D03*
Y13446D02*
D03*
X26849Y10796D02*
D03*
X26349D02*
D03*
Y11046D02*
D03*
X26849D02*
D03*
X34349Y12744D02*
D03*
X34449Y12594D02*
D03*
X28099Y12227D02*
D03*
X28099Y12446D02*
D03*
X28399Y12746D02*
D03*
X28899Y13446D02*
D03*
Y13246D02*
D03*
X27399Y11046D02*
D03*
X26849Y11796D02*
D03*
Y12296D02*
D03*
Y12796D02*
D03*
X27349Y11796D02*
D03*
Y12296D02*
D03*
X26849Y13296D02*
D03*
X26349Y12796D02*
D03*
Y12296D02*
D03*
X25849D02*
D03*
Y12796D02*
D03*
Y13296D02*
D03*
X26349D02*
D03*
Y13796D02*
D03*
X25849D02*
D03*
Y14296D02*
D03*
X26349D02*
D03*
Y14796D02*
D03*
X25849D02*
D03*
Y15296D02*
D03*
X26349D02*
D03*
X26849Y14796D02*
D03*
Y14296D02*
D03*
X27349Y14796D02*
D03*
Y15296D02*
D03*
X27849D02*
D03*
X28099Y14796D02*
D03*
Y14296D02*
D03*
X26849Y13796D02*
D03*
X28599Y15296D02*
D03*
X28849D02*
D03*
Y15046D02*
D03*
X28599D02*
D03*
X17396Y20971D02*
D03*
X17196D02*
D03*
X19106Y18675D02*
D03*
X14046Y19879D02*
D03*
Y19371D02*
D03*
X16796Y19946D02*
D03*
X16796Y20121D02*
D03*
X16896Y20821D02*
D03*
X16996Y20971D02*
D03*
X17096Y20821D02*
D03*
X17296D02*
D03*
X17746Y20221D02*
D03*
X17446D02*
D03*
Y19921D02*
D03*
X18046D02*
D03*
Y20221D02*
D03*
X17446Y19621D02*
D03*
X17746D02*
D03*
X18046D02*
D03*
X17296Y19071D02*
D03*
X17596Y18921D02*
D03*
X17796Y18921D02*
D03*
X18496Y19271D02*
D03*
X18946Y17871D02*
D03*
X19446Y20821D02*
D03*
X19246Y20821D02*
D03*
X18695Y20871D02*
D03*
X18896Y20921D02*
D03*
X19096Y21171D02*
D03*
X19346D02*
D03*
X17346Y21821D02*
D03*
X15996Y21421D02*
D03*
X17446Y18721D02*
D03*
X16646Y18321D02*
D03*
X13846Y20171D02*
D03*
X17796Y20721D02*
D03*
X18196D02*
D03*
X18046Y17571D02*
D03*
X20046D02*
D03*
X20546D02*
D03*
X21046D02*
D03*
X21546D02*
D03*
X22046D02*
D03*
X20546Y18071D02*
D03*
X21046D02*
D03*
X21546D02*
D03*
X20046Y18571D02*
D03*
X20546D02*
D03*
X21046D02*
D03*
X21546D02*
D03*
X20046Y19071D02*
D03*
X19546Y19571D02*
D03*
X20046Y20071D02*
D03*
X20546D02*
D03*
X21546Y21071D02*
D03*
X21046D02*
D03*
X20046D02*
D03*
X20546D02*
D03*
Y21571D02*
D03*
X20046Y22071D02*
D03*
X20546D02*
D03*
X18546D02*
D03*
X15546Y17571D02*
D03*
Y18071D02*
D03*
X15046Y17571D02*
D03*
X14546D02*
D03*
Y18071D02*
D03*
X15046D02*
D03*
X14046Y17571D02*
D03*
Y18071D02*
D03*
Y18571D02*
D03*
X13546D02*
D03*
Y18071D02*
D03*
Y17571D02*
D03*
Y17071D02*
D03*
X15046D02*
D03*
X15546D02*
D03*
X13046Y18571D02*
D03*
Y18071D02*
D03*
Y17571D02*
D03*
Y17071D02*
D03*
X13546Y16571D02*
D03*
X15046D02*
D03*
X13046Y19071D02*
D03*
Y19571D02*
D03*
Y20071D02*
D03*
Y20571D02*
D03*
Y21071D02*
D03*
Y21571D02*
D03*
X13546Y21071D02*
D03*
X14046D02*
D03*
X13546Y21571D02*
D03*
X14546Y21071D02*
D03*
X15046Y22071D02*
D03*
X21066Y19621D02*
D03*
X18546Y18071D02*
D03*
X16346Y19791D02*
D03*
X16496Y20221D02*
D03*
X16346Y18171D02*
D03*
X16496Y17721D02*
D03*
X27876Y20971D02*
D03*
X27676D02*
D03*
X29586Y18675D02*
D03*
X24526Y19879D02*
D03*
Y19371D02*
D03*
X27276Y19946D02*
D03*
X27276Y20121D02*
D03*
X27376Y20821D02*
D03*
X27476Y20971D02*
D03*
X27576Y20821D02*
D03*
X27776D02*
D03*
X28226Y20221D02*
D03*
X27926D02*
D03*
Y19921D02*
D03*
X28526D02*
D03*
Y20221D02*
D03*
X27926Y19621D02*
D03*
X28226D02*
D03*
X28526D02*
D03*
X27776Y19071D02*
D03*
X28076Y18921D02*
D03*
X28276Y18921D02*
D03*
X28976Y19271D02*
D03*
X29426Y17871D02*
D03*
X29926Y20821D02*
D03*
X29726Y20821D02*
D03*
X29175Y20871D02*
D03*
X29376Y20921D02*
D03*
X29576Y21171D02*
D03*
X29826D02*
D03*
X27826Y21821D02*
D03*
X26476Y21421D02*
D03*
X27926Y18721D02*
D03*
X27126Y18321D02*
D03*
X24326Y20171D02*
D03*
X28276Y20721D02*
D03*
X28676D02*
D03*
X28526Y17571D02*
D03*
X30526D02*
D03*
X31026D02*
D03*
X31526D02*
D03*
X32026D02*
D03*
X32526D02*
D03*
X31026Y18071D02*
D03*
X31526D02*
D03*
X32026D02*
D03*
X30526Y18571D02*
D03*
X31026D02*
D03*
X31526D02*
D03*
X32026D02*
D03*
X30526Y19071D02*
D03*
X30026Y19571D02*
D03*
X30526Y20071D02*
D03*
X31026D02*
D03*
X32026Y21071D02*
D03*
X31526D02*
D03*
X30526D02*
D03*
X31026D02*
D03*
Y21571D02*
D03*
X30526Y22071D02*
D03*
X31026D02*
D03*
X29026D02*
D03*
X26026Y17571D02*
D03*
Y18071D02*
D03*
X25526Y17571D02*
D03*
X25026D02*
D03*
Y18071D02*
D03*
X25526D02*
D03*
X24526Y17571D02*
D03*
Y18071D02*
D03*
Y18571D02*
D03*
X24026D02*
D03*
Y18071D02*
D03*
Y17571D02*
D03*
Y17071D02*
D03*
X25526D02*
D03*
X26026D02*
D03*
X23526Y18571D02*
D03*
Y18071D02*
D03*
Y17571D02*
D03*
Y17071D02*
D03*
X24026Y16571D02*
D03*
X25526D02*
D03*
X23526Y19071D02*
D03*
Y19571D02*
D03*
Y20071D02*
D03*
Y20571D02*
D03*
Y21071D02*
D03*
Y21571D02*
D03*
X24026Y21071D02*
D03*
X24526D02*
D03*
X24026Y21571D02*
D03*
X25026Y21071D02*
D03*
X25526Y22071D02*
D03*
X31546Y19621D02*
D03*
X29026Y18071D02*
D03*
X26826Y19791D02*
D03*
X26976Y20221D02*
D03*
X26826Y18171D02*
D03*
X26976Y17721D02*
D03*
D101*
X18699Y15096D02*
D03*
X18949Y15396D02*
D03*
X31599Y15096D02*
D03*
X31849Y15396D02*
D03*
X16776Y19081D02*
D03*
X15436Y19061D02*
D03*
X16446Y20991D02*
D03*
X20546Y17071D02*
D03*
X20046D02*
D03*
X19546Y17571D02*
D03*
Y18071D02*
D03*
X20046D02*
D03*
X22046Y17071D02*
D03*
Y16571D02*
D03*
X20546D02*
D03*
X19546Y17071D02*
D03*
X18046Y18071D02*
D03*
X17546D02*
D03*
Y17571D02*
D03*
X18546D02*
D03*
X27256Y19081D02*
D03*
X25916Y19061D02*
D03*
X26926Y20991D02*
D03*
X31026Y17071D02*
D03*
X30526D02*
D03*
X30026Y17571D02*
D03*
Y18071D02*
D03*
X30526D02*
D03*
X32526Y17071D02*
D03*
Y16571D02*
D03*
X31026D02*
D03*
X30026Y17071D02*
D03*
X28526Y18071D02*
D03*
X28026D02*
D03*
Y17571D02*
D03*
X29026D02*
D03*
D102*
X16508Y22805D02*
D03*
X15847D02*
D03*
X16546Y23567D02*
D03*
X15809D02*
D03*
X26988Y22805D02*
D03*
X26327D02*
D03*
X27026Y23567D02*
D03*
X26289D02*
D03*
D103*
X16178Y23008D02*
D03*
X26658D02*
D03*
D104*
X16178Y23402D02*
D03*
X26658D02*
D03*
D105*
X19850Y28396D02*
D03*
Y26996D02*
D03*
X27850Y28396D02*
D03*
Y26996D02*
D03*
X35850Y28396D02*
D03*
Y26996D02*
D03*
D106*
X18500Y24496D02*
D03*
X14500D02*
D03*
X19300Y30796D02*
D03*
X13700D02*
D03*
X26500Y24496D02*
D03*
X22500D02*
D03*
X27300Y30796D02*
D03*
X21700D02*
D03*
X34500Y24496D02*
D03*
X30500D02*
D03*
X35300Y30796D02*
D03*
X29700D02*
D03*
M02*
