M48
;Layer_Color=9474304
;FILE_FORMAT=4:2
METRIC,LZ
;TYPE=PLATED
T1F00S00C0.40
T2F00S00C0.60
T3F00S00C0.90
T4F00S00C1.00
T5F00S00C1.10
T6F00S00C1.40
T7F00S00C3.00
T8F00S00C3.30
T9F00S00C4.00
%
T01
X06125Y038057
Y037957
X06115
X06105
X06095
Y037857
X06105
X06115
X06125
X06115Y038057
X06105
X06095
X06085
Y037957
Y037857
X06075
X06065
Y037957
X06075
Y038057
X06065
X05245
Y037957
X05235
X05225
X05215
Y037857
X05225
X05235
X05245
X05235Y038057
X05225
X05215
X05205
Y037957
Y037857
X05195
X05185
Y037957
X05195
Y038057
X05185
X04365
Y037957
X04355
X04345
X04335
Y037857
X04345
X04355
X04365
X04355Y038057
X04345
X04335
X04325
Y037957
Y037857
X04315
X04305
Y037957
X04315
Y038057
X04305
X06065Y044457
X06075
X06085
X06095
X06105
Y044557
X06095
Y044657
X06105
X06115
Y044557
X06125
Y044457
X06115
X06125Y044657
X06085
Y044557
X06075
X06065
Y044657
X06075
X05245
Y044557
X05235
X05225
X05215
Y044457
X05225
X05235
X05245
X05235Y044657
X05225
X05215
X05205
Y044557
Y044457
X05195
X05185
Y044557
X05195
Y044657
X05185
X04365
Y044557
X04355
X04345
X04335
Y044457
X04345
X04355
X04365
X04355Y044657
X04345
X04335
X04325
Y044557
Y044457
X04315
X04305
Y044557
X04315
Y044657
X04305
T02
X043647Y035416
X043393Y035413
X043139Y035416
X042631
X043901
X044409
X044663
X044917
X051431
X051939
X052193Y035413
X052447Y035416
X052701
X053209
X053463
X053717
X060231
X060739
X060993Y035413
X061247Y035416
X061501
X062009
X062263
X062517
X063025Y035797
X06155Y036007
X0615Y037257
X061178
Y037057
X06085
X0608Y037257
X06058
X06058Y037057
X06024
Y037257
X05985Y037067
X05955Y036257
Y035957
X0602Y038657
Y038857
Y039207
X0606Y038857
Y038657
X06118
Y038857
X06139Y038757
X0619Y039557
X0621
X0628Y03948
X0591Y039357
Y039657
X05915Y036457
Y036257
X05935Y035807
X054225Y035797
X05275Y036007
X0527Y037257
X052378
Y037057
X05205
X052Y037257
X05178
X05178Y037057
X0518Y038657
Y038857
X05238
Y038657
X05259Y038757
X0531Y039557
X0533
X054Y03948
X0514Y039207
Y038857
Y038657
X05144Y037257
Y037057
X05105Y037067
X05075Y036257
Y035957
X05055Y035807
X05035Y036257
Y036457
X0503Y039357
Y039657
X0452Y03948
X0445Y039557
X0443
X04379Y038757
X0439Y037257
X04395Y036007
X045425Y035797
X043577Y037057
Y037257
X0432
X04298
X04298Y037057
X04325
X04264
Y037257
X04225Y037067
X04195Y036257
Y035957
X04175Y035807
X04155Y036257
Y036457
X0415Y039357
Y039657
X0426Y039207
Y038857
Y038657
X043
Y038857
X04358
Y038657
X0426Y039907
X042631Y042016
X043139
X043393Y042013
X043647Y042016
X04195Y042557
Y042857
X04155
Y043057
X04175Y042407
X04395Y042607
X043901Y042016
X044409
X044663
X044917
X045425Y042397
X0452Y040242
Y039988
Y039734
X0514Y039907
X051431Y042016
X05075Y042557
Y042857
X05035
Y043057
X05055Y042407
X051939Y042016
X052193Y042013
X052447Y042016
X052701
X053209
X053463
X053717
X054225Y042397
X05275Y042607
X054Y040242
Y039988
Y039734
X05935Y042407
X05915Y042857
Y043057
X05955Y042857
Y042557
X060231Y042016
X060739
X060993Y042013
X061247Y042016
X061501
X062009
X062263
X062517
X063025Y042397
X06155Y042607
X0628Y040242
Y039988
Y039734
X0602Y039907
X06024Y043657
Y043857
X06058
X06058Y043657
X06085
X0608Y043857
X061178
Y043657
X0615Y043857
X06139Y045357
X06118Y045257
Y045457
X0606
Y045257
X0602
Y045457
Y045807
Y046507
X0619Y046157
X0621
X0628Y04608
Y046334
Y046588
Y046842
X05985Y043667
X0591Y045957
Y046257
X054Y046334
Y04608
Y046588
Y046842
X0533Y046157
X0531
X05259Y045357
X05238Y045257
Y045457
X0518
Y045257
X05178Y043857
X05178Y043657
X05205
X052Y043857
X052378
Y043657
X0527Y043857
X05144
Y043657
X05105Y043667
X0514Y045257
Y045457
Y045807
Y046507
X0503Y046257
Y045957
X0452Y04608
Y046334
Y046588
Y046842
X0445Y046157
X0443
X04379Y045357
X0439Y043857
X043577
Y043657
X04325
X0432Y043857
X04298
X04298Y043657
X04264
Y043857
X04225Y043667
X0426Y045257
Y045457
Y045807
Y046507
X0415Y046257
Y045957
X043Y045457
Y045257
X04358
Y045457
X041913Y049725
X041399
Y050496
X041913
X04474Y050239
X045254
Y049725
X045768
X046282
Y050239
Y050753
Y051267
X046796
Y050753
X047195Y050706
X046796Y050239
Y049725
X046282Y049211
X045768
X045254
X045768Y048697
X046282
Y048183
X045768
X045254
X04474
Y048697
X044226
Y048183
Y049211
X04474Y049725
X045768Y050239
Y050753
Y051267
X045254
Y050753
X056649Y050496
X057163
Y049725
X056649
X059476Y049211
Y048697
Y048183
X05999
X060504
X061018
Y048697
Y049211
Y049725
X061532
Y050239
Y050753
Y051267
X062046
Y050753
X062445Y050706
X062046Y050239
Y049725
X061532Y049211
Y048697
Y048183
X060504Y049211
Y049725
Y050239
X061018
Y050753
Y051267
X060504
Y050753
X05999Y050239
Y049725
Y048697
X063925Y051656
X063915Y053706
X062295Y053856
X062046Y053837
X061532
Y053323
X062046
Y052809
X062345Y052806
X062046Y052295
X061532
Y052809
X061018
X060504
X05999
Y052295
X060504
X061018
Y051781
X061532
X062046
X062395Y051806
X06276Y052256
X060504Y051781
X05999
X060504Y053323
X061018
Y053837
X060504
X060625Y054406
X060875
X061145
X061125Y05493
X060875
X060623
X060369
X06
Y0544
X060373Y054404
X061495Y05473
X0618
X058055Y053273
X058448Y052809
Y052295
Y051781
X057458Y051715
X048675Y051656
X048665Y053706
X047045Y053856
X046796Y053837
X046282
Y053323
X046796
Y052809
X047095Y052806
X046796Y052295
X046282
Y052809
X045768
X045254
X04474
Y052295
X045254
X045768
Y051781
X046282
X046796
X047145Y051806
X04751Y052256
X045254Y051781
X04474
X045254Y053323
X045768
Y053837
X045254
X045375Y054406
X045625
X045895
X045875Y05493
X045625
X045373
X045119
X04475
Y0544
X045123Y054404
X046245Y05473
X04655
X042805Y053273
X043198Y052809
Y052295
Y051781
X042208Y051715
T03
X041436Y048546
X041182
Y048292
X041436
X040674
Y048546
X04042
Y048292
X047659Y05007
X047913
X048167
X048421
X048675
X048929
X049183
X049437
X049691
X049945
X050199
X050453
X050707
X050961
X051215
X051469
Y050578
X051215
X050961
X050707
X050453
X050199
X049945
X049691
X049437
X049183
X048929
X048675
X048421
X048167
X047913
X047659
X051723
X051977
Y05007
X051723
X05567Y048546
X055924
Y048292
X05567
X056432
Y048546
X056686
Y048292
X062909Y05007
X063163
X063417
Y050578
X063163
X062909
X063671
X063925
X064179
X064433
X064687
X064941
X065195
X065449
X065703
X065957
X066211
X066465
X066719
X066973
X067227
Y05007
X066973
X066719
X066465
X066211
X065957
X065703
X065449
X065195
X064941
X064687
X064433
X064179
X063925
X063671
Y052102
X063925
X064179
X064433
X064687
X064941
X065195
X065449
X065703
X065957
X066211
X066465
X066719
X066973
X067227
Y05261
X066973
X066719
X066465
X066211
X065957
X065703
X065449
X065195
X064941
X064687
X064433
X064179
X063925
X063671
Y054134
X063925
X064179
X064433
X064687
X064941
X065195
X065449
X065703
X065957
X066211
X066465
X066719
X066973
X067227
Y054642
X066973
X066719
X066465
X066211
X065957
X065703
X065449
X065195
X064941
X064687
X064433
X064179
X063925
X063671
X063417
X063163
X062909
Y054134
X063163
X063417
Y05261
X063163
X062909
Y052102
X063163
X063417
X051977
X051723
Y05261
X051977
Y054134
X051723
Y054642
X051977
X051469
X051215
X050961
X050707
X050453
X050199
X049945
X049691
X049437
X049183
X048929
X048675
X048421
X048167
X047913
X047659
Y054134
X047913
X048167
X048421
X048675
X048929
X049183
X049437
X049691
X049945
X050199
X050453
X050707
X050961
X051215
X051469
Y05261
X051215
X050961
X050707
X050453
X050199
X049945
X049691
X049437
X049183
X048929
X048675
X048421
X048167
X047913
X047659
Y052102
X047913
X048167
X048421
X048675
X048929
X049183
X049437
X049691
X049945
X050199
X050453
X050707
X050961
X051215
X051469
X047405Y056166
X047151
X046897
X046643
X046389
X046135
X045881
X045627
X045373
X045119
X044865
X044611
X044357
Y056674
X044611
X044865
X045119
X045373
X045627
X045881
X046135
X046389
X046643
X046897
X047151
X047405
X047659
X047913
X048167
X048421
X048675
X048929
X049183
X049437
X049691
X049945
X050199
X050453
X050707
X050961
X051215
X051469
Y056166
X051215
X050961
X050707
X050453
X050199
X049945
X049691
X049437
X049183
X048929
X048675
X048421
X048167
X047913
X047659
X051723
X051977
Y056674
X051723
X059607
X059861
X060115
X060369
X060623
X060877
X061131
X061385
X061639
X061893
X062147
X062401
X062655
X062909
X063163
X063417
Y056166
X063163
X062909
X062655
X062401
X062147
X061893
X061639
X061385
X061131
X060877
X060623
X060369
X060115
X059861
X059607
X063671
X063925
X064179
X064433
X064687
X064941
X065195
X065449
X065703
X065957
X066211
X066465
X066719
X066973
X067227
Y056674
X066973
X066719
X066465
X066211
X065957
X065703
X065449
X065195
X064941
X064687
X064433
X064179
X063925
X063671
T04
X065366Y038245
Y037967
Y03769
Y037414
X065082Y037275
Y037552
Y037829
Y038106
Y038383
X056566Y038245
Y037967
Y03769
Y037414
X056282Y037275
Y037552
Y037829
Y038106
Y038383
X047766Y038245
Y037967
Y03769
Y037414
X047482Y037275
Y037552
Y037829
Y038106
Y038383
X065082Y043875
Y044152
Y044429
Y044706
Y044983
X065366Y044845
Y044567
Y04429
Y044014
X056566
Y04429
Y044567
Y044845
X056282Y044983
Y044706
Y044429
Y044152
Y043875
X047766Y044014
Y04429
Y044567
Y044845
X047482Y044983
Y044706
Y044429
Y044152
Y043875
T05
X047278Y048667
Y047917
X0455Y048042
Y048542
X044345Y051316
X059595
X06075Y048542
Y048042
X062528Y047917
Y048667
X059595Y054066
X059865Y05548
X060119Y05525
X044869
X044615Y05548
X044345Y054066
X044357Y05573
X059607
T06
X043126Y048588
X042706
Y048038
X043126
X049437
X049857
X050277
Y048588
X049857
X049437
X057956
X058376
Y048038
X057956
X064687
X065107
X065527
Y048588
X065107
X064687
T07
X06345Y037957
X06095Y035957
X05845Y037957
X05465
X05215Y035957
X04965Y037957
X04585
X04335Y035957
X04085Y037957
X04335Y039957
Y042557
X05215
Y039957
X06095
Y042557
Y046557
X06345Y044557
X05845
X05465
X05215Y046557
X04965Y044557
X04585
X04335Y046557
X04085Y044557
X042236Y048083
X043596
X048967
X050747
X057486
X058846
X064217
X065997
T08
X065224Y039079
Y03658
X056424
Y039079
X047624
Y03658
Y04318
X056424
X065224
Y045679
X056424
X047624
T09
X04072Y050285
X05432
X05597
X06957
X06957Y052285
X06957Y054285
X05597
X05597Y052285
X05432
X05432Y054285
X04072
X04072Y052285
X04062Y056685
X04377Y05741
X04752
X05127
X054445Y056685
X05587
X05902Y05741
X06277
X06652
X069695Y056685
M30
