%FSLAX42Y42*%
%MOMM*%
G71*
G01*
G75*
G04 Layer_Color=8388736*
%ADD10R,1.30X0.60*%
%ADD11R,1.40X1.50*%
%ADD12R,3.00X2.50*%
%ADD13R,3.20X1.05*%
%ADD14R,8.30X10.45*%
%ADD15R,5.40X2.90*%
%ADD16R,5.40X3.00*%
%ADD17R,2.79X3.81*%
%ADD18C,0.31*%
%ADD19C,0.35*%
%ADD20C,0.25*%
%ADD21C,2.00*%
%ADD22C,1.50*%
%ADD23C,0.50*%
%ADD24C,1.00*%
%ADD25O,0.31X2.00*%
%ADD26R,1.50X1.40*%
%ADD27R,1.10X2.60*%
%ADD28R,1.40X1.10*%
%ADD29R,2.60X1.10*%
%ADD30R,3.30X1.10*%
%ADD31R,1.50X5.00*%
%ADD32O,1.27X7.62*%
%ADD33C,2.50*%
%ADD34C,3.00*%
%ADD35C,1.50*%
%ADD36R,1.50X1.50*%
%ADD37C,7.62*%
%ADD38C,1.90*%
%ADD39R,1.90X1.90*%
%ADD40C,1.20*%
%ADD41R,7.00X3.00*%
%ADD42C,4.50*%
%ADD43C,4.70*%
%ADD44R,1.70X1.70*%
%ADD45C,1.70*%
%ADD46C,0.80*%
%ADD47R,48.26X10.16*%
%ADD48R,1.50X0.80*%
%ADD49R,1.60X1.70*%
%ADD50R,3.20X2.70*%
%ADD51R,3.40X1.25*%
%ADD52R,8.50X10.65*%
%ADD53R,5.60X3.10*%
%ADD54R,5.60X3.20*%
%ADD55R,3.00X4.01*%
%ADD56O,0.51X2.20*%
%ADD57R,1.70X1.60*%
%ADD58R,1.30X2.80*%
%ADD59R,1.60X1.30*%
%ADD60R,2.80X1.30*%
%ADD61R,3.50X1.30*%
%ADD62R,1.70X5.20*%
%ADD63O,1.47X7.82*%
%ADD64C,2.70*%
%ADD65C,3.20*%
%ADD66C,1.70*%
%ADD67R,1.70X1.70*%
%ADD68C,7.82*%
%ADD69C,2.10*%
%ADD70R,2.10X2.10*%
%ADD71C,1.40*%
%ADD72R,7.20X3.20*%
%ADD73C,4.70*%
%ADD74C,4.90*%
%ADD75R,1.90X1.90*%
%ADD76C,1.90*%
%ADD77C,1.00*%
D47*
X13516Y15488D02*
D03*
Y8888D02*
D03*
X22316Y15488D02*
D03*
Y8888D02*
D03*
X31116Y15488D02*
D03*
Y8888D02*
D03*
D48*
X12195Y25246D02*
D03*
Y25056D02*
D03*
X12405Y25151D02*
D03*
X12195Y24446D02*
D03*
Y24256D02*
D03*
X12405Y24351D02*
D03*
X27445Y25246D02*
D03*
Y25056D02*
D03*
X27655Y25151D02*
D03*
X27445Y24446D02*
D03*
Y24256D02*
D03*
X27655Y24351D02*
D03*
D49*
X12390Y25641D02*
D03*
X12190D02*
D03*
X27640D02*
D03*
X27440D02*
D03*
X15267Y21013D02*
D03*
X15067D02*
D03*
Y20251D02*
D03*
X15267D02*
D03*
Y20759D02*
D03*
X15067D02*
D03*
Y20505D02*
D03*
X15267D02*
D03*
Y14413D02*
D03*
X15067D02*
D03*
Y13651D02*
D03*
X15267D02*
D03*
Y14159D02*
D03*
X15067D02*
D03*
Y13905D02*
D03*
X15267D02*
D03*
X24067Y21013D02*
D03*
X23867D02*
D03*
Y20251D02*
D03*
X24067D02*
D03*
Y20759D02*
D03*
X23867D02*
D03*
Y20505D02*
D03*
X24067D02*
D03*
Y14413D02*
D03*
X23867D02*
D03*
Y13651D02*
D03*
X24067D02*
D03*
Y14159D02*
D03*
X23867D02*
D03*
Y13905D02*
D03*
X24067D02*
D03*
X32867Y21013D02*
D03*
X32667D02*
D03*
Y20251D02*
D03*
X32867D02*
D03*
Y20759D02*
D03*
X32667D02*
D03*
Y20505D02*
D03*
X32867D02*
D03*
Y14413D02*
D03*
X32667D02*
D03*
Y13651D02*
D03*
X32867D02*
D03*
Y14159D02*
D03*
X32667D02*
D03*
Y13905D02*
D03*
X32867D02*
D03*
D50*
X14575Y26762D02*
D03*
X13945D02*
D03*
X14575Y23862D02*
D03*
X13945D02*
D03*
X29825Y26762D02*
D03*
X29195D02*
D03*
X29825Y23862D02*
D03*
X29195D02*
D03*
D51*
X14995Y28102D02*
D03*
Y27932D02*
D03*
Y27762D02*
D03*
Y27592D02*
D03*
Y27422D02*
D03*
Y24622D02*
D03*
Y24792D02*
D03*
Y24962D02*
D03*
Y25132D02*
D03*
Y25302D02*
D03*
X30245Y28102D02*
D03*
Y27932D02*
D03*
Y27762D02*
D03*
Y27592D02*
D03*
Y27422D02*
D03*
Y24622D02*
D03*
Y24792D02*
D03*
Y24962D02*
D03*
Y25132D02*
D03*
Y25302D02*
D03*
D52*
X15940Y27762D02*
D03*
Y24962D02*
D03*
X31190Y27762D02*
D03*
Y24962D02*
D03*
D53*
X13795Y28262D02*
D03*
Y25462D02*
D03*
X29045Y28262D02*
D03*
Y25462D02*
D03*
D54*
X13795Y27272D02*
D03*
Y24472D02*
D03*
X29045Y27272D02*
D03*
Y24472D02*
D03*
D55*
X13947Y26162D02*
D03*
X14660D02*
D03*
X13947Y28862D02*
D03*
X14660D02*
D03*
X29197Y26162D02*
D03*
X29910D02*
D03*
X29197Y28862D02*
D03*
X29910D02*
D03*
D56*
X13177Y18438D02*
D03*
X13242D02*
D03*
X13307D02*
D03*
X13372D02*
D03*
X13437D02*
D03*
X13502D02*
D03*
X13567D02*
D03*
X13632D02*
D03*
X13697D02*
D03*
X13762D02*
D03*
X13827D02*
D03*
X13892D02*
D03*
X13957D02*
D03*
X14022D02*
D03*
X13177Y19018D02*
D03*
X13242D02*
D03*
X13307D02*
D03*
X13372D02*
D03*
X13437D02*
D03*
X13502D02*
D03*
X13567D02*
D03*
X13632D02*
D03*
X13697D02*
D03*
X13762D02*
D03*
X13827D02*
D03*
X13892D02*
D03*
X13957D02*
D03*
X14022D02*
D03*
X13177Y11838D02*
D03*
X13242D02*
D03*
X13307D02*
D03*
X13372D02*
D03*
X13437D02*
D03*
X13502D02*
D03*
X13567D02*
D03*
X13632D02*
D03*
X13697D02*
D03*
X13762D02*
D03*
X13827D02*
D03*
X13892D02*
D03*
X13957D02*
D03*
X14022D02*
D03*
X13177Y12418D02*
D03*
X13242D02*
D03*
X13307D02*
D03*
X13372D02*
D03*
X13437D02*
D03*
X13502D02*
D03*
X13567D02*
D03*
X13632D02*
D03*
X13697D02*
D03*
X13762D02*
D03*
X13827D02*
D03*
X13892D02*
D03*
X13957D02*
D03*
X14022D02*
D03*
X21977Y18438D02*
D03*
X22042D02*
D03*
X22107D02*
D03*
X22172D02*
D03*
X22237D02*
D03*
X22302D02*
D03*
X22367D02*
D03*
X22432D02*
D03*
X22497D02*
D03*
X22562D02*
D03*
X22627D02*
D03*
X22692D02*
D03*
X22757D02*
D03*
X22822D02*
D03*
X21977Y19018D02*
D03*
X22042D02*
D03*
X22107D02*
D03*
X22172D02*
D03*
X22237D02*
D03*
X22302D02*
D03*
X22367D02*
D03*
X22432D02*
D03*
X22497D02*
D03*
X22562D02*
D03*
X22627D02*
D03*
X22692D02*
D03*
X22757D02*
D03*
X22822D02*
D03*
X21977Y11838D02*
D03*
X22042D02*
D03*
X22107D02*
D03*
X22172D02*
D03*
X22237D02*
D03*
X22302D02*
D03*
X22367D02*
D03*
X22432D02*
D03*
X22497D02*
D03*
X22562D02*
D03*
X22627D02*
D03*
X22692D02*
D03*
X22757D02*
D03*
X22822D02*
D03*
X21977Y12418D02*
D03*
X22042D02*
D03*
X22107D02*
D03*
X22172D02*
D03*
X22237D02*
D03*
X22302D02*
D03*
X22367D02*
D03*
X22432D02*
D03*
X22497D02*
D03*
X22562D02*
D03*
X22627D02*
D03*
X22692D02*
D03*
X22757D02*
D03*
X22822D02*
D03*
X30777Y18438D02*
D03*
X30842D02*
D03*
X30907D02*
D03*
X30972D02*
D03*
X31037D02*
D03*
X31102D02*
D03*
X31167D02*
D03*
X31232D02*
D03*
X31297D02*
D03*
X31362D02*
D03*
X31427D02*
D03*
X31492D02*
D03*
X31557D02*
D03*
X31622D02*
D03*
X30777Y19018D02*
D03*
X30842D02*
D03*
X30907D02*
D03*
X30972D02*
D03*
X31037D02*
D03*
X31102D02*
D03*
X31167D02*
D03*
X31232D02*
D03*
X31297D02*
D03*
X31362D02*
D03*
X31427D02*
D03*
X31492D02*
D03*
X31557D02*
D03*
X31622D02*
D03*
X30777Y11838D02*
D03*
X30842D02*
D03*
X30907D02*
D03*
X30972D02*
D03*
X31037D02*
D03*
X31102D02*
D03*
X31167D02*
D03*
X31232D02*
D03*
X31297D02*
D03*
X31362D02*
D03*
X31427D02*
D03*
X31492D02*
D03*
X31557D02*
D03*
X31622D02*
D03*
X30777Y12418D02*
D03*
X30842D02*
D03*
X30907D02*
D03*
X30972D02*
D03*
X31037D02*
D03*
X31102D02*
D03*
X31167D02*
D03*
X31232D02*
D03*
X31297D02*
D03*
X31362D02*
D03*
X31427D02*
D03*
X31492D02*
D03*
X31557D02*
D03*
X31622D02*
D03*
D57*
X12650Y17028D02*
D03*
Y17228D02*
D03*
X12400Y17028D02*
D03*
Y17228D02*
D03*
X12000D02*
D03*
Y17028D02*
D03*
X14200Y17198D02*
D03*
Y16998D02*
D03*
X12375Y20003D02*
D03*
Y19803D02*
D03*
X14550Y20178D02*
D03*
Y19978D02*
D03*
X12100Y19803D02*
D03*
Y20003D02*
D03*
X13950Y19978D02*
D03*
Y20178D02*
D03*
X12650Y20228D02*
D03*
Y20428D02*
D03*
X13650Y19978D02*
D03*
Y20178D02*
D03*
X12650Y10428D02*
D03*
Y10628D02*
D03*
X12400Y10428D02*
D03*
Y10628D02*
D03*
X12000D02*
D03*
Y10428D02*
D03*
X14200Y10598D02*
D03*
Y10398D02*
D03*
X12375Y13403D02*
D03*
Y13203D02*
D03*
X14550Y13578D02*
D03*
Y13378D02*
D03*
X12100Y13203D02*
D03*
Y13403D02*
D03*
X13950Y13378D02*
D03*
Y13578D02*
D03*
X12650Y13628D02*
D03*
Y13828D02*
D03*
X13650Y13378D02*
D03*
Y13578D02*
D03*
X21450Y17028D02*
D03*
Y17228D02*
D03*
X21200Y17028D02*
D03*
Y17228D02*
D03*
X20800D02*
D03*
Y17028D02*
D03*
X23000Y17198D02*
D03*
Y16998D02*
D03*
X21175Y20003D02*
D03*
Y19803D02*
D03*
X23350Y20178D02*
D03*
Y19978D02*
D03*
X20900Y19803D02*
D03*
Y20003D02*
D03*
X22750Y19978D02*
D03*
Y20178D02*
D03*
X21450Y20228D02*
D03*
Y20428D02*
D03*
X22450Y19978D02*
D03*
Y20178D02*
D03*
X21450Y10428D02*
D03*
Y10628D02*
D03*
X21200Y10428D02*
D03*
Y10628D02*
D03*
X20800D02*
D03*
Y10428D02*
D03*
X23000Y10598D02*
D03*
Y10398D02*
D03*
X21175Y13403D02*
D03*
Y13203D02*
D03*
X23350Y13578D02*
D03*
Y13378D02*
D03*
X20900Y13203D02*
D03*
Y13403D02*
D03*
X22750Y13378D02*
D03*
Y13578D02*
D03*
X21450Y13628D02*
D03*
Y13828D02*
D03*
X22450Y13378D02*
D03*
Y13578D02*
D03*
X30250Y17028D02*
D03*
Y17228D02*
D03*
X30000Y17028D02*
D03*
Y17228D02*
D03*
X29600D02*
D03*
Y17028D02*
D03*
X31800Y17198D02*
D03*
Y16998D02*
D03*
X29975Y20003D02*
D03*
Y19803D02*
D03*
X32150Y20178D02*
D03*
Y19978D02*
D03*
X29700Y19803D02*
D03*
Y20003D02*
D03*
X31550Y19978D02*
D03*
Y20178D02*
D03*
X30250Y20228D02*
D03*
Y20428D02*
D03*
X31250Y19978D02*
D03*
Y20178D02*
D03*
X30250Y10428D02*
D03*
Y10628D02*
D03*
X30000Y10428D02*
D03*
Y10628D02*
D03*
X29600D02*
D03*
Y10428D02*
D03*
X31800Y10598D02*
D03*
Y10398D02*
D03*
X29975Y13403D02*
D03*
Y13203D02*
D03*
X32150Y13578D02*
D03*
Y13378D02*
D03*
X29700Y13203D02*
D03*
Y13403D02*
D03*
X31550Y13378D02*
D03*
Y13578D02*
D03*
X30250Y13628D02*
D03*
Y13828D02*
D03*
X31250Y13378D02*
D03*
Y13578D02*
D03*
D58*
X14435Y17778D02*
D03*
X14165D02*
D03*
X13565Y17528D02*
D03*
X13835D02*
D03*
X14435Y11178D02*
D03*
X14165D02*
D03*
X13565Y10928D02*
D03*
X13835D02*
D03*
X23235Y17778D02*
D03*
X22965D02*
D03*
X22365Y17528D02*
D03*
X22635D02*
D03*
X23235Y11178D02*
D03*
X22965D02*
D03*
X22365Y10928D02*
D03*
X22635D02*
D03*
X32035Y17778D02*
D03*
X31765D02*
D03*
X31165Y17528D02*
D03*
X31435D02*
D03*
X32035Y11178D02*
D03*
X31765D02*
D03*
X31165Y10928D02*
D03*
X31435D02*
D03*
D59*
X12350Y20853D02*
D03*
Y20703D02*
D03*
X12875Y20253D02*
D03*
Y20403D02*
D03*
X13400Y20003D02*
D03*
Y20153D02*
D03*
X12350Y14253D02*
D03*
Y14103D02*
D03*
X12875Y13653D02*
D03*
Y13803D02*
D03*
X13400Y13403D02*
D03*
Y13553D02*
D03*
X21150Y20853D02*
D03*
Y20703D02*
D03*
X21675Y20253D02*
D03*
Y20403D02*
D03*
X22200Y20003D02*
D03*
Y20153D02*
D03*
X21150Y14253D02*
D03*
Y14103D02*
D03*
X21675Y13653D02*
D03*
Y13803D02*
D03*
X22200Y13403D02*
D03*
Y13553D02*
D03*
X29950Y20853D02*
D03*
Y20703D02*
D03*
X30475Y20253D02*
D03*
Y20403D02*
D03*
X31000Y20003D02*
D03*
Y20153D02*
D03*
X29950Y14253D02*
D03*
Y14103D02*
D03*
X30475Y13653D02*
D03*
Y13803D02*
D03*
X31000Y13403D02*
D03*
Y13553D02*
D03*
D60*
X14900Y19013D02*
D03*
Y18743D02*
D03*
X12250Y19013D02*
D03*
Y18743D02*
D03*
X12620Y17993D02*
D03*
Y18263D02*
D03*
X14250Y19943D02*
D03*
Y20213D02*
D03*
X12375Y20463D02*
D03*
Y20193D02*
D03*
X14900Y12413D02*
D03*
Y12143D02*
D03*
X12250Y12413D02*
D03*
Y12143D02*
D03*
X12620Y11393D02*
D03*
Y11663D02*
D03*
X14250Y13343D02*
D03*
Y13613D02*
D03*
X12375Y13863D02*
D03*
Y13593D02*
D03*
X23700Y19013D02*
D03*
Y18743D02*
D03*
X21050Y19013D02*
D03*
Y18743D02*
D03*
X21420Y17993D02*
D03*
Y18263D02*
D03*
X23050Y19943D02*
D03*
Y20213D02*
D03*
X21175Y20463D02*
D03*
Y20193D02*
D03*
X23700Y12413D02*
D03*
Y12143D02*
D03*
X21050Y12413D02*
D03*
Y12143D02*
D03*
X21420Y11393D02*
D03*
Y11663D02*
D03*
X23050Y13343D02*
D03*
Y13613D02*
D03*
X21175Y13863D02*
D03*
Y13593D02*
D03*
X32500Y19013D02*
D03*
Y18743D02*
D03*
X29850Y19013D02*
D03*
Y18743D02*
D03*
X30220Y17993D02*
D03*
Y18263D02*
D03*
X31850Y19943D02*
D03*
Y20213D02*
D03*
X29975Y20463D02*
D03*
Y20193D02*
D03*
X32500Y12413D02*
D03*
Y12143D02*
D03*
X29850Y12413D02*
D03*
Y12143D02*
D03*
X30220Y11393D02*
D03*
Y11663D02*
D03*
X31850Y13343D02*
D03*
Y13613D02*
D03*
X29975Y13863D02*
D03*
Y13593D02*
D03*
D61*
X14500Y18443D02*
D03*
Y19013D02*
D03*
X12650Y18443D02*
D03*
Y19013D02*
D03*
X14500Y11843D02*
D03*
Y12413D02*
D03*
X12650Y11843D02*
D03*
Y12413D02*
D03*
X23300Y18443D02*
D03*
Y19013D02*
D03*
X21450Y18443D02*
D03*
Y19013D02*
D03*
X23300Y11843D02*
D03*
Y12413D02*
D03*
X21450Y11843D02*
D03*
Y12413D02*
D03*
X32100Y18443D02*
D03*
Y19013D02*
D03*
X30250Y18443D02*
D03*
Y19013D02*
D03*
X32100Y11843D02*
D03*
Y12413D02*
D03*
X30250Y11843D02*
D03*
Y12413D02*
D03*
D62*
X11513Y20669D02*
D03*
X11275D02*
D03*
X11037D02*
D03*
X11513Y14069D02*
D03*
X11275D02*
D03*
X11037D02*
D03*
X20313Y20669D02*
D03*
X20075D02*
D03*
X19837D02*
D03*
X20313Y14069D02*
D03*
X20075D02*
D03*
X19837D02*
D03*
X29113Y20669D02*
D03*
X28875D02*
D03*
X28637D02*
D03*
X29113Y14069D02*
D03*
X28875D02*
D03*
X28637D02*
D03*
D63*
X15675Y15552D02*
D03*
X15421D02*
D03*
X15167D02*
D03*
X14913D02*
D03*
X14659D02*
D03*
X14405D02*
D03*
X14151D02*
D03*
X13897D02*
D03*
X13643D02*
D03*
X13389D02*
D03*
X13135D02*
D03*
X12881D02*
D03*
X12627D02*
D03*
X12373D02*
D03*
X12119D02*
D03*
X11865D02*
D03*
X11611D02*
D03*
X11357D02*
D03*
X15675Y8952D02*
D03*
X15421D02*
D03*
X15167D02*
D03*
X14913D02*
D03*
X14659D02*
D03*
X14405D02*
D03*
X14151D02*
D03*
X13897D02*
D03*
X13643D02*
D03*
X13389D02*
D03*
X13135D02*
D03*
X12881D02*
D03*
X12627D02*
D03*
X12373D02*
D03*
X12119D02*
D03*
X11865D02*
D03*
X11611D02*
D03*
X11357D02*
D03*
X24475Y15552D02*
D03*
X24221D02*
D03*
X23967D02*
D03*
X23713D02*
D03*
X23459D02*
D03*
X23205D02*
D03*
X22951D02*
D03*
X22697D02*
D03*
X22443D02*
D03*
X22189D02*
D03*
X21935D02*
D03*
X21681D02*
D03*
X21427D02*
D03*
X21173D02*
D03*
X20919D02*
D03*
X20665D02*
D03*
X20411D02*
D03*
X20157D02*
D03*
X24475Y8952D02*
D03*
X24221D02*
D03*
X23967D02*
D03*
X23713D02*
D03*
X23459D02*
D03*
X23205D02*
D03*
X22951D02*
D03*
X22697D02*
D03*
X22443D02*
D03*
X22189D02*
D03*
X21935D02*
D03*
X21681D02*
D03*
X21427D02*
D03*
X21173D02*
D03*
X20919D02*
D03*
X20665D02*
D03*
X20411D02*
D03*
X20157D02*
D03*
X33275Y15552D02*
D03*
X33021D02*
D03*
X32767D02*
D03*
X32513D02*
D03*
X32259D02*
D03*
X32005D02*
D03*
X31751D02*
D03*
X31497D02*
D03*
X31243D02*
D03*
X30989D02*
D03*
X30735D02*
D03*
X30481D02*
D03*
X30227D02*
D03*
X29973D02*
D03*
X29719D02*
D03*
X29465D02*
D03*
X29211D02*
D03*
X28957D02*
D03*
X33275Y8952D02*
D03*
X33021D02*
D03*
X32767D02*
D03*
X32513D02*
D03*
X32259D02*
D03*
X32005D02*
D03*
X31751D02*
D03*
X31497D02*
D03*
X31243D02*
D03*
X30989D02*
D03*
X30735D02*
D03*
X30481D02*
D03*
X30227D02*
D03*
X29973D02*
D03*
X29719D02*
D03*
X29465D02*
D03*
X29211D02*
D03*
X28957D02*
D03*
D64*
X20527Y22209D02*
D03*
Y22759D02*
D03*
X20107D02*
D03*
X19687D02*
D03*
X20107Y22209D02*
D03*
X19687D02*
D03*
X13376Y22759D02*
D03*
X12956D02*
D03*
X13376Y22209D02*
D03*
X12956D02*
D03*
X35777D02*
D03*
Y22759D02*
D03*
X35357D02*
D03*
X34937D02*
D03*
X35357Y22209D02*
D03*
X34937D02*
D03*
X28626Y22759D02*
D03*
X28206D02*
D03*
X28626Y22209D02*
D03*
X28206D02*
D03*
D65*
X19217Y22254D02*
D03*
X20997D02*
D03*
X12486D02*
D03*
X13846D02*
D03*
X34467D02*
D03*
X36247D02*
D03*
X27736D02*
D03*
X29096D02*
D03*
D66*
X10670Y22717D02*
D03*
X10924D02*
D03*
X10670Y22463D02*
D03*
X11432Y22717D02*
D03*
X11686D02*
D03*
X11432Y22463D02*
D03*
X17909Y26273D02*
D03*
X19179D02*
D03*
X19433D02*
D03*
X19687D02*
D03*
X19941D02*
D03*
X20195D02*
D03*
X20449D02*
D03*
X20703D02*
D03*
X20957D02*
D03*
X21211D02*
D03*
X21465D02*
D03*
X21719D02*
D03*
X21973D02*
D03*
X22227D02*
D03*
X17909Y26781D02*
D03*
X18163D02*
D03*
X18417D02*
D03*
X18671D02*
D03*
X18925D02*
D03*
X19179D02*
D03*
X19433D02*
D03*
X19687D02*
D03*
X18925Y26273D02*
D03*
X18671D02*
D03*
X18417D02*
D03*
X18163D02*
D03*
X19941Y26781D02*
D03*
X20195D02*
D03*
X20449D02*
D03*
X20703D02*
D03*
X20957D02*
D03*
X21211D02*
D03*
X21719D02*
D03*
X21973D02*
D03*
X22227D02*
D03*
X21465D02*
D03*
Y24749D02*
D03*
X22227D02*
D03*
X21973D02*
D03*
X21719D02*
D03*
X21211D02*
D03*
X20957D02*
D03*
X20703D02*
D03*
X20449D02*
D03*
X20195D02*
D03*
X19941D02*
D03*
X18163Y24241D02*
D03*
X18417D02*
D03*
X18671D02*
D03*
X18925D02*
D03*
X19687Y24749D02*
D03*
X19433D02*
D03*
X19179D02*
D03*
X18925D02*
D03*
X18671D02*
D03*
X18417D02*
D03*
X18163D02*
D03*
X17909D02*
D03*
X22227Y24241D02*
D03*
X21973D02*
D03*
X21719D02*
D03*
X21465D02*
D03*
X21211D02*
D03*
X20957D02*
D03*
X20703D02*
D03*
X20449D02*
D03*
X20195D02*
D03*
X19941D02*
D03*
X19687D02*
D03*
X19433D02*
D03*
X19179D02*
D03*
X17909D02*
D03*
Y28305D02*
D03*
X19179D02*
D03*
X19433D02*
D03*
X19687D02*
D03*
X19941D02*
D03*
X20195D02*
D03*
X20449D02*
D03*
X20703D02*
D03*
X20957D02*
D03*
X21211D02*
D03*
X21465D02*
D03*
X21719D02*
D03*
X21973D02*
D03*
X22227D02*
D03*
X17909Y28813D02*
D03*
X18163D02*
D03*
X18417D02*
D03*
X18671D02*
D03*
X18925D02*
D03*
X19179D02*
D03*
X19433D02*
D03*
X19687D02*
D03*
X18925Y28305D02*
D03*
X18671D02*
D03*
X18417D02*
D03*
X18163D02*
D03*
X19941Y28813D02*
D03*
X20195D02*
D03*
X20449D02*
D03*
X20703D02*
D03*
X20957D02*
D03*
X21211D02*
D03*
X21719D02*
D03*
X21973D02*
D03*
X22227D02*
D03*
X21465D02*
D03*
X14607Y30337D02*
D03*
X14861D02*
D03*
X15115D02*
D03*
X15369D02*
D03*
X15623D02*
D03*
X15877D02*
D03*
X16131D02*
D03*
X16385D02*
D03*
X16639D02*
D03*
X16893D02*
D03*
X17147D02*
D03*
X17401D02*
D03*
X17655D02*
D03*
X17909D02*
D03*
X18163D02*
D03*
X18417D02*
D03*
X18671D02*
D03*
X18925D02*
D03*
X19179D02*
D03*
X19433D02*
D03*
X19687D02*
D03*
X19941D02*
D03*
X20195D02*
D03*
X20449D02*
D03*
X20703D02*
D03*
X20957D02*
D03*
X21211D02*
D03*
X21465D02*
D03*
X21719D02*
D03*
X21973D02*
D03*
X22227D02*
D03*
X14607Y30845D02*
D03*
X14861D02*
D03*
X15115D02*
D03*
X15369D02*
D03*
X15623D02*
D03*
X15877D02*
D03*
X16131D02*
D03*
X16385D02*
D03*
X16639D02*
D03*
X16893D02*
D03*
X17147D02*
D03*
X17401D02*
D03*
X17655D02*
D03*
X17909D02*
D03*
X18163D02*
D03*
X18417D02*
D03*
X18671D02*
D03*
X18925D02*
D03*
X19179D02*
D03*
X19433D02*
D03*
X19687D02*
D03*
X19941D02*
D03*
X20195D02*
D03*
X20449D02*
D03*
X20703D02*
D03*
X20957D02*
D03*
X21211D02*
D03*
X21465D02*
D03*
X21719D02*
D03*
X21973D02*
D03*
X22227D02*
D03*
X25920Y22717D02*
D03*
X26174D02*
D03*
X25920Y22463D02*
D03*
X26682Y22717D02*
D03*
X26936D02*
D03*
X26682Y22463D02*
D03*
X33159Y26273D02*
D03*
X34429D02*
D03*
X34683D02*
D03*
X34937D02*
D03*
X35191D02*
D03*
X35445D02*
D03*
X35699D02*
D03*
X35953D02*
D03*
X36207D02*
D03*
X36461D02*
D03*
X36715D02*
D03*
X36969D02*
D03*
X37223D02*
D03*
X37477D02*
D03*
X33159Y26781D02*
D03*
X33413D02*
D03*
X33667D02*
D03*
X33921D02*
D03*
X34175D02*
D03*
X34429D02*
D03*
X34683D02*
D03*
X34937D02*
D03*
X34175Y26273D02*
D03*
X33921D02*
D03*
X33667D02*
D03*
X33413D02*
D03*
X35191Y26781D02*
D03*
X35445D02*
D03*
X35699D02*
D03*
X35953D02*
D03*
X36207D02*
D03*
X36461D02*
D03*
X36969D02*
D03*
X37223D02*
D03*
X37477D02*
D03*
X36715D02*
D03*
Y24749D02*
D03*
X37477D02*
D03*
X37223D02*
D03*
X36969D02*
D03*
X36461D02*
D03*
X36207D02*
D03*
X35953D02*
D03*
X35699D02*
D03*
X35445D02*
D03*
X35191D02*
D03*
X33413Y24241D02*
D03*
X33667D02*
D03*
X33921D02*
D03*
X34175D02*
D03*
X34937Y24749D02*
D03*
X34683D02*
D03*
X34429D02*
D03*
X34175D02*
D03*
X33921D02*
D03*
X33667D02*
D03*
X33413D02*
D03*
X33159D02*
D03*
X37477Y24241D02*
D03*
X37223D02*
D03*
X36969D02*
D03*
X36715D02*
D03*
X36461D02*
D03*
X36207D02*
D03*
X35953D02*
D03*
X35699D02*
D03*
X35445D02*
D03*
X35191D02*
D03*
X34937D02*
D03*
X34683D02*
D03*
X34429D02*
D03*
X33159D02*
D03*
Y28305D02*
D03*
X34429D02*
D03*
X34683D02*
D03*
X34937D02*
D03*
X35191D02*
D03*
X35445D02*
D03*
X35699D02*
D03*
X35953D02*
D03*
X36207D02*
D03*
X36461D02*
D03*
X36715D02*
D03*
X36969D02*
D03*
X37223D02*
D03*
X37477D02*
D03*
X33159Y28813D02*
D03*
X33413D02*
D03*
X33667D02*
D03*
X33921D02*
D03*
X34175D02*
D03*
X34429D02*
D03*
X34683D02*
D03*
X34937D02*
D03*
X34175Y28305D02*
D03*
X33921D02*
D03*
X33667D02*
D03*
X33413D02*
D03*
X35191Y28813D02*
D03*
X35445D02*
D03*
X35699D02*
D03*
X35953D02*
D03*
X36207D02*
D03*
X36461D02*
D03*
X36969D02*
D03*
X37223D02*
D03*
X37477D02*
D03*
X36715D02*
D03*
X29857Y30337D02*
D03*
X30111D02*
D03*
X30365D02*
D03*
X30619D02*
D03*
X30873D02*
D03*
X31127D02*
D03*
X31381D02*
D03*
X31635D02*
D03*
X31889D02*
D03*
X32143D02*
D03*
X32397D02*
D03*
X32651D02*
D03*
X32905D02*
D03*
X33159D02*
D03*
X33413D02*
D03*
X33667D02*
D03*
X33921D02*
D03*
X34175D02*
D03*
X34429D02*
D03*
X34683D02*
D03*
X34937D02*
D03*
X35191D02*
D03*
X35445D02*
D03*
X35699D02*
D03*
X35953D02*
D03*
X36207D02*
D03*
X36461D02*
D03*
X36715D02*
D03*
X36969D02*
D03*
X37223D02*
D03*
X37477D02*
D03*
X29857Y30845D02*
D03*
X30111D02*
D03*
X30365D02*
D03*
X30619D02*
D03*
X30873D02*
D03*
X31127D02*
D03*
X31381D02*
D03*
X31635D02*
D03*
X31889D02*
D03*
X32143D02*
D03*
X32397D02*
D03*
X32651D02*
D03*
X32905D02*
D03*
X33159D02*
D03*
X33413D02*
D03*
X33667D02*
D03*
X33921D02*
D03*
X34175D02*
D03*
X34429D02*
D03*
X34683D02*
D03*
X34937D02*
D03*
X35191D02*
D03*
X35445D02*
D03*
X35699D02*
D03*
X35953D02*
D03*
X36207D02*
D03*
X36461D02*
D03*
X36715D02*
D03*
X36969D02*
D03*
X37223D02*
D03*
X37477D02*
D03*
D67*
X10924Y22463D02*
D03*
X11686D02*
D03*
X26174D02*
D03*
X26936D02*
D03*
D68*
X10970Y24456D02*
D03*
X10970Y26456D02*
D03*
X10970Y28456D02*
D03*
X10870Y30856D02*
D03*
X14020Y31581D02*
D03*
X17770D02*
D03*
X21520D02*
D03*
X24695Y30856D02*
D03*
X24570Y28456D02*
D03*
X24570Y26456D02*
D03*
X24570Y24456D02*
D03*
X26220D02*
D03*
X26220Y26456D02*
D03*
X26220Y28456D02*
D03*
X26120Y30856D02*
D03*
X29270Y31581D02*
D03*
X33020D02*
D03*
X36770D02*
D03*
X39945Y30856D02*
D03*
X39820Y28456D02*
D03*
X39820Y26456D02*
D03*
X39820Y24456D02*
D03*
D69*
X15750Y22213D02*
D03*
X17528Y22088D02*
D03*
X15119Y29421D02*
D03*
X14865Y29651D02*
D03*
X14595Y25487D02*
D03*
Y28237D02*
D03*
X14607Y29901D02*
D03*
X31000Y22213D02*
D03*
X32778Y22088D02*
D03*
X30369Y29421D02*
D03*
X30115Y29651D02*
D03*
X29845Y25487D02*
D03*
Y28237D02*
D03*
X29857Y29901D02*
D03*
D70*
X15750Y22713D02*
D03*
X17528Y22838D02*
D03*
X31000Y22713D02*
D03*
X32778Y22838D02*
D03*
D71*
X12457Y25886D02*
D03*
X13055Y27444D02*
D03*
X17295Y28027D02*
D03*
X17760Y26427D02*
D03*
X17445Y24877D02*
D03*
X17345Y26977D02*
D03*
X18915Y27877D02*
D03*
X16800Y28901D02*
D03*
X16495D02*
D03*
X16145Y28577D02*
D03*
X16125Y29101D02*
D03*
X15875D02*
D03*
Y28577D02*
D03*
X15625D02*
D03*
X15623Y29101D02*
D03*
X15373Y28575D02*
D03*
X15369Y29101D02*
D03*
X17395Y25977D02*
D03*
X18925Y25827D02*
D03*
X17046Y28008D02*
D03*
X16532D02*
D03*
Y27494D02*
D03*
X17046D02*
D03*
Y26980D02*
D03*
X16532D02*
D03*
Y26466D02*
D03*
X17046D02*
D03*
Y25952D02*
D03*
X16532D02*
D03*
X16018D02*
D03*
X15504D02*
D03*
X14990D02*
D03*
Y26466D02*
D03*
Y26980D02*
D03*
X15504D02*
D03*
X16018D02*
D03*
Y26466D02*
D03*
X15504D02*
D03*
X15000Y28571D02*
D03*
Y29101D02*
D03*
X17046Y25438D02*
D03*
X16532D02*
D03*
Y24924D02*
D03*
X17046D02*
D03*
Y24410D02*
D03*
X16532D02*
D03*
X17046Y23896D02*
D03*
X16532D02*
D03*
X16018D02*
D03*
X15504D02*
D03*
X16018Y24410D02*
D03*
X15504D02*
D03*
X16018Y24924D02*
D03*
Y25438D02*
D03*
X15504D02*
D03*
Y24924D02*
D03*
X16018Y27494D02*
D03*
Y28008D02*
D03*
X15504D02*
D03*
Y27494D02*
D03*
X14990Y24410D02*
D03*
X16532Y23382D02*
D03*
X16018D02*
D03*
X15504D02*
D03*
X16532Y22868D02*
D03*
X16018D02*
D03*
Y22354D02*
D03*
X16532D02*
D03*
X15504D02*
D03*
X14990D02*
D03*
Y22868D02*
D03*
Y23896D02*
D03*
X14476Y22868D02*
D03*
Y22354D02*
D03*
Y23382D02*
D03*
X13448Y25952D02*
D03*
Y26466D02*
D03*
Y26980D02*
D03*
X12163Y24667D02*
D03*
Y23896D02*
D03*
X11649Y24667D02*
D03*
Y23896D02*
D03*
X27707Y25886D02*
D03*
X28305Y27444D02*
D03*
X32545Y28027D02*
D03*
X33010Y26427D02*
D03*
X32695Y24877D02*
D03*
X32595Y26977D02*
D03*
X34165Y27877D02*
D03*
X32050Y28901D02*
D03*
X31745D02*
D03*
X31395Y28577D02*
D03*
X31375Y29101D02*
D03*
X31125D02*
D03*
Y28577D02*
D03*
X30875D02*
D03*
X30873Y29101D02*
D03*
X30623Y28575D02*
D03*
X30619Y29101D02*
D03*
X32645Y25977D02*
D03*
X34175Y25827D02*
D03*
X32296Y28008D02*
D03*
X31782D02*
D03*
Y27494D02*
D03*
X32296D02*
D03*
Y26980D02*
D03*
X31782D02*
D03*
Y26466D02*
D03*
X32296D02*
D03*
Y25952D02*
D03*
X31782D02*
D03*
X31268D02*
D03*
X30754D02*
D03*
X30240D02*
D03*
Y26466D02*
D03*
Y26980D02*
D03*
X30754D02*
D03*
X31268D02*
D03*
Y26466D02*
D03*
X30754D02*
D03*
X30250Y28571D02*
D03*
Y29101D02*
D03*
X32296Y25438D02*
D03*
X31782D02*
D03*
Y24924D02*
D03*
X32296D02*
D03*
Y24410D02*
D03*
X31782D02*
D03*
X32296Y23896D02*
D03*
X31782D02*
D03*
X31268D02*
D03*
X30754D02*
D03*
X31268Y24410D02*
D03*
X30754D02*
D03*
X31268Y24924D02*
D03*
Y25438D02*
D03*
X30754D02*
D03*
Y24924D02*
D03*
X31268Y27494D02*
D03*
Y28008D02*
D03*
X30754D02*
D03*
Y27494D02*
D03*
X30240Y24410D02*
D03*
X31782Y23382D02*
D03*
X31268D02*
D03*
X30754D02*
D03*
X31782Y22868D02*
D03*
X31268D02*
D03*
Y22354D02*
D03*
X31782D02*
D03*
X30754D02*
D03*
X30240D02*
D03*
Y22868D02*
D03*
Y23896D02*
D03*
X29726Y22868D02*
D03*
Y22354D02*
D03*
Y23382D02*
D03*
X28698Y25952D02*
D03*
Y26466D02*
D03*
Y26980D02*
D03*
X27413Y24667D02*
D03*
Y23896D02*
D03*
X26899Y24667D02*
D03*
Y23896D02*
D03*
X14040Y19528D02*
D03*
X12890Y18028D02*
D03*
X13389Y16187D02*
D03*
X14151D02*
D03*
X13250Y19428D02*
D03*
X13500Y17828D02*
D03*
X13230D02*
D03*
X13230Y18028D02*
D03*
X13450D02*
D03*
X13827D02*
D03*
X14150D02*
D03*
X12890Y17828D02*
D03*
X13897Y16187D02*
D03*
X13827Y17828D02*
D03*
X14200Y16778D02*
D03*
X13643Y16184D02*
D03*
X12881Y16187D02*
D03*
X12500Y17838D02*
D03*
X12850Y19628D02*
D03*
X13250D02*
D03*
X12850Y20678D02*
D03*
X11750Y20428D02*
D03*
X13830Y19628D02*
D03*
Y19428D02*
D03*
X14750Y20328D02*
D03*
X14550D02*
D03*
X15675Y16568D02*
D03*
X15167Y16187D02*
D03*
X14913D02*
D03*
X14659D02*
D03*
X15450Y20251D02*
D03*
Y20505D02*
D03*
Y20759D02*
D03*
Y21013D02*
D03*
X12850Y19978D02*
D03*
X12200Y16728D02*
D03*
Y17028D02*
D03*
X12000Y16578D02*
D03*
X11800Y17028D02*
D03*
Y17228D02*
D03*
X11750Y20128D02*
D03*
X12850Y19428D02*
D03*
X14040Y12928D02*
D03*
X12890Y11428D02*
D03*
X13389Y9587D02*
D03*
X14151D02*
D03*
X13250Y12828D02*
D03*
X13500Y11228D02*
D03*
X13230D02*
D03*
X13230Y11428D02*
D03*
X13450D02*
D03*
X13827D02*
D03*
X14150D02*
D03*
X12890Y11228D02*
D03*
X13897Y9587D02*
D03*
X13827Y11228D02*
D03*
X14200Y10178D02*
D03*
X13643Y9584D02*
D03*
X12881Y9587D02*
D03*
X12500Y11238D02*
D03*
X12850Y13028D02*
D03*
X13250D02*
D03*
X12850Y14078D02*
D03*
X11750Y13828D02*
D03*
X13830Y13028D02*
D03*
Y12828D02*
D03*
X14750Y13728D02*
D03*
X14550D02*
D03*
X15675Y9968D02*
D03*
X15167Y9587D02*
D03*
X14913D02*
D03*
X14659D02*
D03*
X15450Y13651D02*
D03*
Y13905D02*
D03*
Y14159D02*
D03*
Y14413D02*
D03*
X12850Y13378D02*
D03*
X12200Y10128D02*
D03*
Y10428D02*
D03*
X12000Y9978D02*
D03*
X11800Y10428D02*
D03*
Y10628D02*
D03*
X11750Y13528D02*
D03*
X12850Y12828D02*
D03*
X22840Y19528D02*
D03*
X21690Y18028D02*
D03*
X22189Y16187D02*
D03*
X22951D02*
D03*
X22050Y19428D02*
D03*
X22300Y17828D02*
D03*
X22030D02*
D03*
X22030Y18028D02*
D03*
X22250D02*
D03*
X22627D02*
D03*
X22950D02*
D03*
X21690Y17828D02*
D03*
X22697Y16187D02*
D03*
X22627Y17828D02*
D03*
X23000Y16778D02*
D03*
X22443Y16184D02*
D03*
X21681Y16187D02*
D03*
X21300Y17838D02*
D03*
X21650Y19628D02*
D03*
X22050D02*
D03*
X21650Y20678D02*
D03*
X20550Y20428D02*
D03*
X22630Y19628D02*
D03*
Y19428D02*
D03*
X23550Y20328D02*
D03*
X23350D02*
D03*
X24475Y16568D02*
D03*
X23967Y16187D02*
D03*
X23713D02*
D03*
X23459D02*
D03*
X24250Y20251D02*
D03*
Y20505D02*
D03*
Y20759D02*
D03*
Y21013D02*
D03*
X21650Y19978D02*
D03*
X21000Y16728D02*
D03*
Y17028D02*
D03*
X20800Y16578D02*
D03*
X20600Y17028D02*
D03*
Y17228D02*
D03*
X20550Y20128D02*
D03*
X21650Y19428D02*
D03*
X22840Y12928D02*
D03*
X21690Y11428D02*
D03*
X22189Y9587D02*
D03*
X22951D02*
D03*
X22050Y12828D02*
D03*
X22300Y11228D02*
D03*
X22030D02*
D03*
X22030Y11428D02*
D03*
X22250D02*
D03*
X22627D02*
D03*
X22950D02*
D03*
X21690Y11228D02*
D03*
X22697Y9587D02*
D03*
X22627Y11228D02*
D03*
X23000Y10178D02*
D03*
X22443Y9584D02*
D03*
X21681Y9587D02*
D03*
X21300Y11238D02*
D03*
X21650Y13028D02*
D03*
X22050D02*
D03*
X21650Y14078D02*
D03*
X20550Y13828D02*
D03*
X22630Y13028D02*
D03*
Y12828D02*
D03*
X23550Y13728D02*
D03*
X23350D02*
D03*
X24475Y9968D02*
D03*
X23967Y9587D02*
D03*
X23713D02*
D03*
X23459D02*
D03*
X24250Y13651D02*
D03*
Y13905D02*
D03*
Y14159D02*
D03*
Y14413D02*
D03*
X21650Y13378D02*
D03*
X21000Y10128D02*
D03*
Y10428D02*
D03*
X20800Y9978D02*
D03*
X20600Y10428D02*
D03*
Y10628D02*
D03*
X20550Y13528D02*
D03*
X21650Y12828D02*
D03*
X31640Y19528D02*
D03*
X30490Y18028D02*
D03*
X30989Y16187D02*
D03*
X31751D02*
D03*
X30850Y19428D02*
D03*
X31100Y17828D02*
D03*
X30830D02*
D03*
X30830Y18028D02*
D03*
X31050D02*
D03*
X31427D02*
D03*
X31750D02*
D03*
X30490Y17828D02*
D03*
X31497Y16187D02*
D03*
X31427Y17828D02*
D03*
X31800Y16778D02*
D03*
X31243Y16184D02*
D03*
X30481Y16187D02*
D03*
X30100Y17838D02*
D03*
X30450Y19628D02*
D03*
X30850D02*
D03*
X30450Y20678D02*
D03*
X29350Y20428D02*
D03*
X31430Y19628D02*
D03*
Y19428D02*
D03*
X32350Y20328D02*
D03*
X32150D02*
D03*
X33275Y16568D02*
D03*
X32767Y16187D02*
D03*
X32513D02*
D03*
X32259D02*
D03*
X33050Y20251D02*
D03*
Y20505D02*
D03*
Y20759D02*
D03*
Y21013D02*
D03*
X30450Y19978D02*
D03*
X29800Y16728D02*
D03*
Y17028D02*
D03*
X29600Y16578D02*
D03*
X29400Y17028D02*
D03*
Y17228D02*
D03*
X29350Y20128D02*
D03*
X30450Y19428D02*
D03*
X31640Y12928D02*
D03*
X30490Y11428D02*
D03*
X30989Y9587D02*
D03*
X31751D02*
D03*
X30850Y12828D02*
D03*
X31100Y11228D02*
D03*
X30830D02*
D03*
X30830Y11428D02*
D03*
X31050D02*
D03*
X31427D02*
D03*
X31750D02*
D03*
X30490Y11228D02*
D03*
X31497Y9587D02*
D03*
X31427Y11228D02*
D03*
X31800Y10178D02*
D03*
X31243Y9584D02*
D03*
X30481Y9587D02*
D03*
X30100Y11238D02*
D03*
X30450Y13028D02*
D03*
X30850D02*
D03*
X30450Y14078D02*
D03*
X29350Y13828D02*
D03*
X31430Y13028D02*
D03*
Y12828D02*
D03*
X32350Y13728D02*
D03*
X32150D02*
D03*
X33275Y9968D02*
D03*
X32767Y9587D02*
D03*
X32513D02*
D03*
X32259D02*
D03*
X33050Y13651D02*
D03*
Y13905D02*
D03*
Y14159D02*
D03*
Y14413D02*
D03*
X30450Y13378D02*
D03*
X29800Y10128D02*
D03*
Y10428D02*
D03*
X29600Y9978D02*
D03*
X29400Y10428D02*
D03*
Y10628D02*
D03*
X29350Y13528D02*
D03*
X30450Y12828D02*
D03*
D72*
X13600Y18728D02*
D03*
Y12128D02*
D03*
X22400Y18728D02*
D03*
Y12128D02*
D03*
X31200Y18728D02*
D03*
Y12128D02*
D03*
D73*
X16100Y18728D02*
D03*
X11100D02*
D03*
X13600Y20728D02*
D03*
Y16728D02*
D03*
X16100Y12128D02*
D03*
X11100D02*
D03*
X13600Y14128D02*
D03*
Y10128D02*
D03*
X24900Y18728D02*
D03*
X19900D02*
D03*
X22400Y20728D02*
D03*
Y16728D02*
D03*
X24900Y12128D02*
D03*
X19900D02*
D03*
X22400Y14128D02*
D03*
Y10128D02*
D03*
X33700Y18728D02*
D03*
X28700D02*
D03*
X31200Y20728D02*
D03*
Y16728D02*
D03*
X33700Y12128D02*
D03*
X28700D02*
D03*
X31200Y14128D02*
D03*
Y10128D02*
D03*
D74*
X17874Y17350D02*
D03*
Y19849D02*
D03*
Y10750D02*
D03*
Y13249D02*
D03*
X26674Y17350D02*
D03*
Y19849D02*
D03*
Y10750D02*
D03*
Y13249D02*
D03*
X35474Y17350D02*
D03*
Y19849D02*
D03*
Y10750D02*
D03*
Y13249D02*
D03*
D75*
X17732Y19154D02*
D03*
Y12554D02*
D03*
X26532Y19154D02*
D03*
Y12554D02*
D03*
X35332Y19154D02*
D03*
Y12554D02*
D03*
D76*
X18016Y19015D02*
D03*
X17732Y18877D02*
D03*
X18016Y18738D02*
D03*
X17732Y18600D02*
D03*
X18016Y18461D02*
D03*
X17732Y18323D02*
D03*
X18016Y18184D02*
D03*
X17732Y18046D02*
D03*
X18016Y12415D02*
D03*
X17732Y12277D02*
D03*
X18016Y12138D02*
D03*
X17732Y12000D02*
D03*
X18016Y11861D02*
D03*
X17732Y11723D02*
D03*
X18016Y11584D02*
D03*
X17732Y11446D02*
D03*
X26816Y19015D02*
D03*
X26532Y18877D02*
D03*
X26816Y18738D02*
D03*
X26532Y18600D02*
D03*
X26816Y18461D02*
D03*
X26532Y18323D02*
D03*
X26816Y18184D02*
D03*
X26532Y18046D02*
D03*
X26816Y12415D02*
D03*
X26532Y12277D02*
D03*
X26816Y12138D02*
D03*
X26532Y12000D02*
D03*
X26816Y11861D02*
D03*
X26532Y11723D02*
D03*
X26816Y11584D02*
D03*
X26532Y11446D02*
D03*
X35616Y19015D02*
D03*
X35332Y18877D02*
D03*
X35616Y18738D02*
D03*
X35332Y18600D02*
D03*
X35616Y18461D02*
D03*
X35332Y18323D02*
D03*
X35616Y18184D02*
D03*
X35332Y18046D02*
D03*
X35616Y12415D02*
D03*
X35332Y12277D02*
D03*
X35616Y12138D02*
D03*
X35332Y12000D02*
D03*
X35616Y11861D02*
D03*
X35332Y11723D02*
D03*
X35616Y11584D02*
D03*
X35332Y11446D02*
D03*
D77*
X13900Y18728D02*
D03*
X13600Y18628D02*
D03*
Y18828D02*
D03*
X13700D02*
D03*
Y18728D02*
D03*
Y18628D02*
D03*
X13800D02*
D03*
Y18728D02*
D03*
Y18828D02*
D03*
X13900Y18628D02*
D03*
Y18828D02*
D03*
X13500D02*
D03*
Y18728D02*
D03*
Y18628D02*
D03*
X13400D02*
D03*
Y18728D02*
D03*
Y18828D02*
D03*
X13300D02*
D03*
Y18728D02*
D03*
Y18628D02*
D03*
X13600Y18728D02*
D03*
X13900Y12128D02*
D03*
X13600Y12028D02*
D03*
Y12228D02*
D03*
X13700D02*
D03*
Y12128D02*
D03*
Y12028D02*
D03*
X13800D02*
D03*
Y12128D02*
D03*
Y12228D02*
D03*
X13900Y12028D02*
D03*
Y12228D02*
D03*
X13500D02*
D03*
Y12128D02*
D03*
Y12028D02*
D03*
X13400D02*
D03*
Y12128D02*
D03*
Y12228D02*
D03*
X13300D02*
D03*
Y12128D02*
D03*
Y12028D02*
D03*
X13600Y12128D02*
D03*
X22700Y18728D02*
D03*
X22400Y18628D02*
D03*
Y18828D02*
D03*
X22500D02*
D03*
Y18728D02*
D03*
Y18628D02*
D03*
X22600D02*
D03*
Y18728D02*
D03*
Y18828D02*
D03*
X22700Y18628D02*
D03*
Y18828D02*
D03*
X22300D02*
D03*
Y18728D02*
D03*
Y18628D02*
D03*
X22200D02*
D03*
Y18728D02*
D03*
Y18828D02*
D03*
X22100D02*
D03*
Y18728D02*
D03*
Y18628D02*
D03*
X22400Y18728D02*
D03*
X22700Y12128D02*
D03*
X22400Y12028D02*
D03*
Y12228D02*
D03*
X22500D02*
D03*
Y12128D02*
D03*
Y12028D02*
D03*
X22600D02*
D03*
Y12128D02*
D03*
Y12228D02*
D03*
X22700Y12028D02*
D03*
Y12228D02*
D03*
X22300D02*
D03*
Y12128D02*
D03*
Y12028D02*
D03*
X22200D02*
D03*
Y12128D02*
D03*
Y12228D02*
D03*
X22100D02*
D03*
Y12128D02*
D03*
Y12028D02*
D03*
X22400Y12128D02*
D03*
X31500Y18728D02*
D03*
X31200Y18628D02*
D03*
Y18828D02*
D03*
X31300D02*
D03*
Y18728D02*
D03*
Y18628D02*
D03*
X31400D02*
D03*
Y18728D02*
D03*
Y18828D02*
D03*
X31500Y18628D02*
D03*
Y18828D02*
D03*
X31100D02*
D03*
Y18728D02*
D03*
Y18628D02*
D03*
X31000D02*
D03*
Y18728D02*
D03*
Y18828D02*
D03*
X30900D02*
D03*
Y18728D02*
D03*
Y18628D02*
D03*
X31200Y18728D02*
D03*
X31500Y12128D02*
D03*
X31200Y12028D02*
D03*
Y12228D02*
D03*
X31300D02*
D03*
Y12128D02*
D03*
Y12028D02*
D03*
X31400D02*
D03*
Y12128D02*
D03*
Y12228D02*
D03*
X31500Y12028D02*
D03*
Y12228D02*
D03*
X31100D02*
D03*
Y12128D02*
D03*
Y12028D02*
D03*
X31000D02*
D03*
Y12128D02*
D03*
Y12228D02*
D03*
X30900D02*
D03*
Y12128D02*
D03*
Y12028D02*
D03*
X31200Y12128D02*
D03*
M02*
