M48
;Layer_Color=9474304
;FILE_FORMAT=4:2
METRIC,LZ
;TYPE=PLATED
T1F00S00C0.60
T2F00S00C0.71
T3F00S00C0.80
T4F00S00C0.90
T6F00S00C1.00
T8F00S00C1.80
T9F00S00C2.00
T10F00S00C3.00
T11F00S00C3.50
;TYPE=NON_PLATED
T12F00S00C3.00
%
T01
X003849Y01025
Y0105
Y01175
X003349
X004349
Y01125
X004849
Y01175
X005599Y01168
X005599Y0119
X005898Y011851
X005949Y01135
X005749
Y01115
Y01065
X005949Y0108
X005413Y0109
Y01025
X004909Y01025
X004899Y0105
X004349
Y01025
X006099
X006349
X006599
X006499Y0104
X007149
X007349
X007599
X007799
X007699Y01025
X007499
X007249
X007049
X006949Y0108
X006649Y0111
X006674Y0114
X006349Y01135
X006149
X007649Y01145
X007752Y011297
X007799Y01165
X007699Y0118
X007899Y01065
X007949Y01105
X008389Y0116
X008699Y0117
X008799Y01155
X008999
X008989Y01185
X008949Y0111
X009049Y01095
X009499
X009699
X009599Y0111
X009399
X009949
X010149
X010349
X010549
X010449Y01095
X010649
X010249
X010049
X009849Y01155
X009524Y011575
X010109Y01185
X010669Y01154
X011049Y0116
X011249Y0116
X011299Y0111
X011499
X011599Y01095
X011399
X011799Y0104
X011899Y01025
X009599Y01025
X009399
X009149
X008949
X009049Y0104
X009249
X009499
X009699
X008849
X011999Y0104
X012199
X012399Y0104
X012299Y01025
X012099
X012523
X013349Y0114
X016249Y01175
X016749
X017249
Y01125
X017749
Y01175
X018499Y01168
X018499Y0119
X018798Y011851
X018849Y01135
X018649
Y01115
Y01065
X018849Y0108
X018313Y0109
Y01025
X017809Y01025
X017799Y0105
X017249
Y01025
X016749
Y0105
X018999Y01025
X019249
X019499
X019399Y0104
X019549Y0111
X019574Y0114
X019249Y01135
X019049
X019849Y0108
X020049Y0104
X020249
X020499
X020699
X020599Y01025
X020399
X020149
X019949
X020799Y01065
X020849Y01105
X020652Y011297
X020549Y01145
X020699Y01165
X020599Y0118
X021289Y0116
X021599Y0117
X021699Y01155
X021899
X021889Y01185
X021849Y0111
X021949Y01095
X022399
X022599
X022499Y0111
X022299
X022849
X023049
X023249
X023449
X023349Y01095
X023549
X023149
X022949
X022749Y01155
X022424Y011575
X023009Y01185
X023569Y01154
X022599Y0104
X022399
X022149
X021949
X021749
X021849Y01025
X022049
X022299
X022499
X024799Y01025
X024999
X025199
X025423
X025299Y0104
X025099Y0104
X024899
X024699
X024499Y01095
X024299
X024399Y0111
X024199
X024149Y0116
X023949Y0116
X026249Y0114
X025649Y01195
X025429Y01195
X024849Y012048
X024749Y012198
X024949Y0122
X024597Y012102
X024412Y012353
X024249Y0123
X024031Y012352
X023849Y01285
Y01303
X024049Y0132
X024449
X024599Y013732
X024159Y013727
X025249Y0132
X025428
X025249Y01285
X026249Y01271
X026254Y01341
X025649Y0136
Y0144
Y0148
X023599Y0147
X023699Y01455
X022949Y0145
X022749
X022549Y0145
X022646Y01435
X022449Y01435
X022849Y01435
X023099Y01425
Y01405
X023249Y01415
Y01375
Y01355
Y01335
Y01315
X023099Y01325
Y01345
Y01365
X022649Y01385
X022199Y0141
X022099Y0135
Y0133
Y0131
Y0129
X022299
Y0127
X021699
X021499
X021699Y0129
X021899
Y0133
X021699
Y0131
X021499Y0133
X021498Y013501
X021249Y01375
X020749Y0137
X020599Y0136
X020399Y013725
X020399Y01315
X020599
X020499Y01276
X020599Y0125
X020749Y0126
Y01235
Y0121
X020599Y012
Y0122
X021189Y01235
X022349Y01215
X022749Y0123
X023009Y0129
X021549Y01435
X021349
X021449Y0145
X021649
X021849Y01485
X022049
X021399Y015
X020749Y01445
X020599Y01435
Y01415
X020749Y01405
X019994
X020149Y01425
X020159Y01445
X019649Y01415
X019499Y01405
X019249Y0145
Y01475
X018999
Y0145
X018499Y01425
Y01375
X018799Y01366
X018846Y01344
X019399Y01315
X019499Y0129
X019299
Y0127
X019499
X019495Y0125
X019499Y0123
Y0121
X018799Y0122
X018669Y01257
X018524Y012443
X018524Y012825
X017899Y012825
Y01245
X017249Y01225
Y01275
X016749
Y01225
X016249
Y01275
Y01325
X016749
Y01375
X016249
Y01425
X016749
Y01475
X016249
X017249Y01425
Y01375
Y01325
X017749Y01425
Y01475
X018249
X012749Y0148
Y0144
Y0136
X012528Y0132
X012349
Y01285
X012049Y0122
X011949Y012048
X012529Y01195
X012749Y01195
X013349Y01271
X013354Y01341
X011699Y013732
X011259Y013727
X011149Y0132
X010949Y01303
Y01285
X011131Y012352
X011349Y0123
X011512Y012353
X011697Y012102
X011849Y012198
X011549Y0132
X010349Y01315
Y01335
Y01355
Y01375
X010199Y01365
Y01345
Y01325
X010109Y0129
X009399
X009199
Y0131
Y0133
Y0135
X008999Y0133
X008799
Y0131
Y0129
X008999
X008799Y0127
X008599
Y0133
X008598Y013501
X008349Y01375
X008449Y01435
X008649
X008549Y0145
X008749
X008949Y01485
X009149
X008499Y015
X009649Y0145
X009849Y0145
X010049
X009949Y01435
X009746
X009549Y01435
X009299Y0141
X009749Y01385
X010199Y01405
Y01425
X010349Y01415
X010799Y01455
X010699Y0147
X009849Y0123
X009449Y01215
X009399Y0127
X008289Y01235
X007849Y01235
Y0126
X007699Y0125
Y0122
Y012
X007849Y0121
X007599Y01276
X007499Y01315
X007699
Y0136
X007849Y0137
X007849Y01405
X007699Y01415
Y01435
X007849Y01445
X007259Y01445
X007249Y01425
X007094Y01405
X006749Y01415
X006599Y01405
X006349Y0145
Y01475
X006099
Y0145
X005599Y01425
Y01375
X005899Y01366
X005946Y01344
X006499Y01315
X006599Y0129
X006399
Y0127
X006599
X006595Y0125
X006599Y0123
Y0121
X005899Y0122
X005769Y01257
X005624Y012443
X005624Y012825
X004999Y012825
Y01245
X004349Y01225
Y01275
Y01325
Y01375
Y01425
X004849
Y01475
X005349
X007499Y013725
X003849Y01375
Y01325
Y01275
Y01225
X003349
Y01275
Y01325
Y01375
Y01425
X003849
Y01475
X003349
X003446Y016525
X003946
Y017025
Y017525
Y018025
X003446
Y017525
Y017025
X003946Y016025
X003446Y018525
Y019025
Y019525
X004246Y019625
X004446Y019333
Y018825
Y018025
Y017525
X004946
Y017025
X005446
X005946
Y017525
X005446
Y016525
X005946
X005446Y016025
X004446Y017025
X006896Y017175
X006746Y017625
X007046Y017775
X007846Y018175
X007696Y018525
X007846Y019075
Y019375
Y019675
X007196Y019575
X007196Y0194
X006896Y019675
X006746Y019245
X008146Y019075
X008446
Y019375
Y019675
X008146
X008196Y018375
X007996Y018375
X008896Y018725
X009506Y018128
X009346Y017325
X008946Y017525
X008446Y017025
X010446
X010946
X011446
Y017525
X010946
Y018025
X010446
Y018525
X009946Y019025
X010446Y019525
X010946
X011466Y019075
X011446Y018025
X011946
Y017525
Y017025
X012446
X013926
X014426
X014926
X015426
Y017525
X014926
Y018025
X014426
Y017525
X013926
Y018025
Y018525
Y019025
Y019525
X014726Y019625
X014926Y019333
Y018825
X014426Y016525
X013926
X014426Y016025
X015926
Y016525
Y017025
X016426
Y017525
X015926
X017226Y017625
X017526Y017775
X017376Y017175
X016426Y016525
X018926Y017025
X019426Y017525
X019826Y017325
X019376Y018725
X018926Y019075
Y019375
Y019675
X018626
X018326
Y019375
Y019075
X018626
X018676Y018375
X018476Y018375
X018326Y018175
X018176Y018525
X017676Y0194
X017676Y019575
X017376Y019675
X017226Y019245
X020426Y019025
X020926Y018525
Y018025
X021426
Y017525
Y017025
X020926
X021926
X022426
X022926
X022426Y017525
X021926
Y018025
X022426
X021946Y019075
X021426Y019525
X020926
X019986Y018128
X020126Y020275
X020326Y020275
X020226Y020625
X019976
X020926Y020525
X021426
X021926
X022426
X021426Y021025
Y021525
X020926
X019426
X019575Y020324
X019776Y020375
X019076Y020175
X018676
X018176Y020275
X017976
X017776
X017876Y020425
X018076
X018276
X018226Y021275
X016876Y020875
X015926Y021525
X015426Y020525
X014926
X014426
X013926
Y020025
Y021025
X014426
X011946Y020525
X011446
X010946
X010446
X009746Y020625
X009496
X009296Y020375
X009095Y020324
X009646Y020275
X009846Y020275
X008596Y020175
X008196
X008946Y021525
X010446
X010946
Y021025
X007746Y021275
X007796Y020425
X007596
X007396
X007296Y020275
X007496
X007696
X006396Y020875
X005446Y021525
X004946Y020525
X004446
X003946
X003446
Y020025
Y021025
X003946
T02
X022249Y01485
X009349
X007176Y018535
X005836Y018515
X007946Y017525
X008446
X007946Y017025
X008946
X009946
Y017525
X010446
Y016525
X010946
Y016025
X009946Y016525
X012446
Y016025
X016316Y018515
X017656Y018535
X018426Y017525
X018926
X018426Y017025
X019426
X020426
Y017525
X020926
Y016525
X021426
Y016025
X022926
Y016525
X020426
X017326Y020445
X006846
T03
X027949Y013273
Y013527
Y013773
Y014027
X015049
Y013773
Y013527
Y013273
T04
X003349Y010738
Y010992
Y011246
Y0115
X013989Y011822
X014962Y011888
X015114Y011634
X016249Y0115
Y011246
Y010992
Y010738
X026889Y011822
X027862Y011888
X028014Y011634
Y012645
X027862Y012899
X026889Y012584
Y01233
Y012076
X026635Y012203
Y012457
Y012711
Y011949
X020749Y015
X020495
X020241
X019987
X019733
X019479
X014962Y012899
X015114Y012645
X013989Y012584
Y01233
Y012076
X013735Y012203
Y012457
Y012711
Y011949
X007849Y015
X007595
X007341
X007087
X006833
X006579
X006946Y016025
X0072
X007454
X004746Y018825
Y019079
Y019333
Y019587
Y019841
X008321Y016279
Y016025
X008575
Y016279
X008829
Y016025
X009083
Y016279
X009337
Y016025
X012688Y017529
Y017783
Y018037
X012696Y018825
Y019079
Y019333
Y019587
Y019841
X015226
Y019587
Y019333
Y019079
Y018825
X017426Y016025
X01768
X017934
X018801
Y016279
X019055
Y016025
X019309
Y016279
X019563
Y016025
X019817
Y016279
X023168Y017529
Y017783
Y018037
X023176Y018825
Y019079
Y019333
Y019587
Y019841
Y020095
X020576Y022525
X020322
X019258Y022915
X019004Y022763
X018247Y022915
X017993Y022763
X018308Y02179
X018562
X018816
X01907
X018943Y021536
X018689
X018435
X018181
X015226Y020349
Y020095
X012696
X010096Y022525
X009842
X008778Y022915
X008524Y022763
X00859Y02179
X008336
X008082
X008209Y021536
X008463
X007955
X007701
X007828Y02179
X007767Y022915
X007513Y022763
X004746Y020349
Y020095
X0035Y02675
Y027004
Y027258
Y027512
Y027766
X00645Y02415
X00663
X00681
X00699
X00717
X00735
X0115Y02675
Y027004
Y027258
Y027512
Y027766
X01445Y02415
X01463
X01481
X01499
X01517
X01535
X0195Y02675
Y027004
Y027258
Y027512
Y027766
X02245Y02415
X02263
X02281
X02299
X02317
X02335
X0262Y02975
X0264
X0196
X0194
X0184
X0182
X0195Y028274
Y02802
X0115
Y028274
X0116Y02975
X0114
X0104
X0102
X0036
X0034
X0035Y028274
Y02802
T06
X017043Y012646
Y014646
X004143
Y012646
T08
X014294Y011479
X027194
Y013054
X014294
X017838Y022095
X019413
X008933
X007358
T09
X017058Y022856
X006578
T10
X014849Y01
X027749
Y0145
X014849
X0049Y02395
X0089
X0129
X0169
X0209
X0249
X0257Y03025
X0201
X0177
X0121
X0097
X0041
T11
X004646Y016225
X006146Y016025
X010146
X011646Y016225
X015126
X016626Y016025
X020626
X022126Y016225
Y021325
X021426Y022325
X015826
X015126Y021325
X011646
X010946Y022325
X005346
X004646Y021325
T12
X014624Y011695
X027524
Y012838
X014624
X018054Y022425
X019197
X008717
X007574
M30
