M48
;Layer_Color=9474304
;FILE_FORMAT=4:2
METRIC,LZ
;TYPE=PLATED
T5F00S00C0.90
T7F00S00C1.10
;TYPE=NON_PLATED
%
G90
G05
T05
G00X016727Y022314
M15
G01Y022204
M16
G00X017003Y022462
M15
G01X017113
M16
G00X017388Y022314
M15
G01Y022204
M16
G00X017426Y023076
M15
G01Y022966
M16
G00X016689Y023076
M15
G01Y022966
M16
G00X006946Y023076
M15
G01Y022966
M16
G00X006209Y023076
M15
G01Y022966
M16
G00X006247Y022314
M15
G01Y022204
M16
G00X006523Y022462
M15
G01X006633
M16
G00X006908Y022314
M15
G01Y022204
M16
T07
G00X01025Y026545
M15
G01Y026355
M16
G00X01825Y026545
M15
G01Y026355
M16
G00X02625Y026545
M15
G01Y026355
M16
G00X02625Y027945
M15
G01Y027755
M16
G00X01825Y027945
M15
G01Y027755
M16
G00X01025Y027945
M15
G01Y027755
M16
M17
M30
