%FSLAX42Y42*%
%MOMM*%
G71*
G01*
G75*
G04 Layer_Color=16711935*
%ADD10C,0.20*%
%ADD11C,0.40*%
%ADD12O,1.27X7.62*%
%ADD13R,1.30X1.10*%
G04:AMPARAMS|DCode=14|XSize=1.3mm|YSize=1.1mm|CornerRadius=0mm|HoleSize=0mm|Usage=FLASHONLY|Rotation=360.000|XOffset=0mm|YOffset=0mm|HoleType=Round|Shape=Octagon|*
%AMOCTAGOND14*
4,1,8,0.65,-0.28,0.65,0.28,0.38,0.55,-0.38,0.55,-0.65,0.28,-0.65,-0.28,-0.38,-0.55,0.38,-0.55,0.65,-0.28,0.0*
%
%ADD14OCTAGOND14*%

%ADD15O,2.60X0.70*%
%ADD16R,1.40X3.30*%
%ADD17R,1.50X1.40*%
%ADD18R,1.40X1.50*%
%ADD19R,1.30X0.60*%
%ADD20R,1.40X1.10*%
%ADD21R,2.60X1.10*%
%ADD22R,1.10X2.60*%
%ADD23O,0.60X2.30*%
%ADD24O,2.30X0.70*%
%ADD25O,0.24X1.80*%
%ADD26O,1.80X0.24*%
%ADD27R,0.50X1.00*%
%ADD28C,0.50*%
%ADD29C,0.25*%
%ADD30C,1.00*%
%ADD31R,2.79X3.81*%
%ADD32R,2.50X3.00*%
%ADD33O,0.30X1.80*%
%ADD34O,1.80X0.30*%
%ADD35R,1.10X1.30*%
G04:AMPARAMS|DCode=36|XSize=1.3mm|YSize=1.1mm|CornerRadius=0mm|HoleSize=0mm|Usage=FLASHONLY|Rotation=90.000|XOffset=0mm|YOffset=0mm|HoleType=Round|Shape=Octagon|*
%AMOCTAGOND36*
4,1,8,0.28,0.65,-0.28,0.65,-0.55,0.38,-0.55,-0.38,-0.28,-0.65,0.28,-0.65,0.55,-0.38,0.55,0.38,0.28,0.65,0.0*
%
%ADD36OCTAGOND36*%

%ADD37O,0.60X2.20*%
%ADD38R,0.60X1.30*%
%ADD39R,6.30X2.15*%
%ADD40R,3.30X1.40*%
%ADD41R,3.00X2.50*%
%ADD42R,1.40X1.40*%
%ADD43R,1.10X1.40*%
%ADD44R,1.70X1.10*%
%ADD45C,0.25*%
%ADD46C,2.00*%
%ADD47C,0.30*%
%ADD48C,1.60*%
%ADD49C,5.00*%
%ADD50C,1.50*%
%ADD51R,1.50X1.50*%
%ADD52R,1.50X1.50*%
%ADD53C,3.25*%
%ADD54C,2.50*%
%ADD55C,1.20*%
%ADD56C,1.27*%
%ADD57O,1.50X3.00*%
%ADD58O,3.00X1.50*%
%ADD59C,2.00*%
%ADD60O,2.00X4.00*%
%ADD61C,4.50*%
%ADD62R,81.12X10.16*%
%ADD63O,1.47X7.82*%
%ADD64R,1.50X1.30*%
G04:AMPARAMS|DCode=65|XSize=1.5mm|YSize=1.3mm|CornerRadius=0mm|HoleSize=0mm|Usage=FLASHONLY|Rotation=360.000|XOffset=0mm|YOffset=0mm|HoleType=Round|Shape=Octagon|*
%AMOCTAGOND65*
4,1,8,0.75,-0.33,0.75,0.33,0.43,0.65,-0.43,0.65,-0.75,0.33,-0.75,-0.33,-0.43,-0.65,0.43,-0.65,0.75,-0.33,0.0*
%
%ADD65OCTAGOND65*%

%ADD66O,2.80X0.90*%
%ADD67R,1.60X3.50*%
%ADD68R,1.70X1.60*%
%ADD69R,1.60X1.70*%
%ADD70R,1.50X0.80*%
%ADD71R,1.60X1.30*%
%ADD72R,2.80X1.30*%
%ADD73R,1.30X2.80*%
%ADD74O,0.80X2.50*%
%ADD75O,2.50X0.90*%
%ADD76O,0.44X2.00*%
%ADD77O,2.00X0.44*%
%ADD78R,0.70X1.20*%
%ADD79R,3.00X4.01*%
%ADD80R,2.70X3.20*%
%ADD81O,0.50X2.00*%
%ADD82O,2.00X0.50*%
%ADD83R,1.30X1.50*%
G04:AMPARAMS|DCode=84|XSize=1.5mm|YSize=1.3mm|CornerRadius=0mm|HoleSize=0mm|Usage=FLASHONLY|Rotation=90.000|XOffset=0mm|YOffset=0mm|HoleType=Round|Shape=Octagon|*
%AMOCTAGOND84*
4,1,8,0.33,0.75,-0.33,0.75,-0.65,0.43,-0.65,-0.43,-0.33,-0.75,0.33,-0.75,0.65,-0.43,0.65,0.43,0.33,0.75,0.0*
%
%ADD84OCTAGOND84*%

%ADD85O,0.80X2.40*%
%ADD86R,0.80X1.50*%
%ADD87R,6.50X2.35*%
%ADD88R,3.50X1.60*%
%ADD89R,3.20X2.70*%
%ADD90R,1.60X1.60*%
%ADD91R,1.30X1.60*%
%ADD92R,1.90X1.30*%
%ADD93C,1.80*%
%ADD94C,5.20*%
%ADD95C,1.70*%
%ADD96R,1.70X1.70*%
%ADD97R,1.70X1.70*%
%ADD98C,3.45*%
%ADD99C,2.70*%
%ADD100C,1.40*%
%ADD101C,1.47*%
%ADD102O,1.70X3.20*%
%ADD103O,3.20X1.70*%
%ADD104C,2.20*%
%ADD105O,2.20X4.20*%
%ADD106C,4.70*%
%ADD107R,81.12X10.32*%
%ADD108C,0.10*%
D108*
X12600Y15846D02*
X25300D01*
X12600D02*
Y9639D01*
X13997D01*
Y10401D02*
Y9639D01*
Y10401D02*
X14251D01*
Y9639D01*
X14441Y9449D01*
X22188D01*
X22379Y9639D02*
X22188Y9449D01*
X22379Y10401D02*
Y9639D01*
Y10401D02*
X22633D01*
Y9639D01*
X25300D01*
Y15846D02*
Y9639D01*
X25500Y15846D02*
X38200D01*
X25500D02*
Y9639D01*
X26897D01*
Y10401D02*
Y9639D01*
Y10401D02*
X27151D01*
Y9639D01*
X27341Y9449D01*
X35088D01*
X35279Y9639D02*
X35088Y9449D01*
X35279Y10401D02*
Y9639D01*
Y10401D02*
X35533D01*
Y9639D01*
X38200D01*
Y15846D02*
Y9639D01*
X16123Y23048D02*
G03*
X16123Y22968I0J-40D01*
G01*
X16233D02*
G03*
X16233Y23048I0J40D01*
G01*
X15887Y22860D02*
G03*
X15807Y22860I-40J0D01*
G01*
Y22750D02*
G03*
X15887Y22750I40J0D01*
G01*
X16548Y22860D02*
G03*
X16468Y22860I-40J0D01*
G01*
Y22750D02*
G03*
X16548Y22750I40J0D01*
G01*
X16586Y23622D02*
G03*
X16506Y23622I-40J0D01*
G01*
Y23512D02*
G03*
X16586Y23512I40J0D01*
G01*
X15849Y23622D02*
G03*
X15769Y23622I-40J0D01*
G01*
Y23512D02*
G03*
X15849Y23512I40J0D01*
G01*
X12714Y21822D02*
G03*
X12820Y16604I24912J-2102D01*
G01*
X12822Y16605D02*
G03*
X13421Y16074I598J71D01*
G01*
X22057Y16074D02*
G03*
X22648Y16624I-8J602D01*
G01*
X22651Y16619D02*
G03*
X22777Y21819I-24794J3202D01*
G01*
X22778Y21819D02*
G03*
X22488Y22070I-271J-19D01*
G01*
X21441Y22856D02*
G03*
X22231Y22067I790J0D01*
G01*
X21440Y23176D02*
G03*
X21187Y23473I-275J22D01*
G01*
X21187Y23473D02*
G03*
X14265Y23463I-3432J-19606D01*
G01*
X14267Y23461D02*
G03*
X14045Y23174I53J-271D01*
G01*
X13362Y22070D02*
G03*
X14045Y22753I0J683D01*
G01*
X12988Y22072D02*
G03*
X12715Y21822I0J-273D01*
G01*
X16123Y22968D02*
X16233D01*
X16123Y23048D02*
X16233D01*
X15807Y22750D02*
Y22860D01*
X15887Y22750D02*
Y22860D01*
X16468Y22750D02*
Y22860D01*
X16548Y22750D02*
Y22860D01*
X16506Y23512D02*
Y23622D01*
X16586Y23512D02*
Y23622D01*
X15769Y23512D02*
Y23622D01*
X15849Y23512D02*
Y23622D01*
X13421Y16071D02*
X14348D01*
X14346D02*
X21146D01*
X21143D02*
X22057D01*
X22231Y22070D02*
X22488D01*
X21441Y22856D02*
Y23176D01*
X14045Y22753D02*
Y23174D01*
X12988Y22071D02*
X13362D01*
X26603Y23048D02*
G03*
X26603Y22968I0J-40D01*
G01*
X26713D02*
G03*
X26713Y23048I0J40D01*
G01*
X26367Y22860D02*
G03*
X26287Y22860I-40J0D01*
G01*
Y22750D02*
G03*
X26367Y22750I40J0D01*
G01*
X27028Y22860D02*
G03*
X26948Y22860I-40J0D01*
G01*
Y22750D02*
G03*
X27028Y22750I40J0D01*
G01*
X27066Y23622D02*
G03*
X26986Y23622I-40J0D01*
G01*
Y23512D02*
G03*
X27066Y23512I40J0D01*
G01*
X26329Y23622D02*
G03*
X26249Y23622I-40J0D01*
G01*
Y23512D02*
G03*
X26329Y23512I40J0D01*
G01*
X23194Y21822D02*
G03*
X23300Y16604I24912J-2102D01*
G01*
X23302Y16605D02*
G03*
X23901Y16074I598J71D01*
G01*
X32537Y16074D02*
G03*
X33128Y16624I-8J602D01*
G01*
X33131Y16619D02*
G03*
X33257Y21819I-24794J3202D01*
G01*
X33258Y21819D02*
G03*
X32968Y22070I-271J-19D01*
G01*
X31921Y22856D02*
G03*
X32711Y22067I790J0D01*
G01*
X31920Y23176D02*
G03*
X31667Y23473I-275J22D01*
G01*
X31667Y23473D02*
G03*
X24745Y23463I-3432J-19606D01*
G01*
X24747Y23461D02*
G03*
X24525Y23174I53J-271D01*
G01*
X23842Y22070D02*
G03*
X24525Y22753I0J683D01*
G01*
X23468Y22072D02*
G03*
X23195Y21822I0J-273D01*
G01*
X26603Y22968D02*
X26713D01*
X26603Y23048D02*
X26713D01*
X26287Y22750D02*
Y22860D01*
X26367Y22750D02*
Y22860D01*
X26948Y22750D02*
Y22860D01*
X27028Y22750D02*
Y22860D01*
X26986Y23512D02*
Y23622D01*
X27066Y23512D02*
Y23622D01*
X26249Y23512D02*
Y23622D01*
X26329Y23512D02*
Y23622D01*
X23901Y16071D02*
X24828D01*
X24826D02*
X31626D01*
X31623D02*
X32537D01*
X32711Y22070D02*
X32968D01*
X31921Y22856D02*
Y23176D01*
X24525Y22753D02*
Y23174D01*
X23468Y22071D02*
X23842D01*
X13602Y31196D02*
X19400D01*
X12600Y30194D02*
X13602Y31196D01*
X12600Y23996D02*
Y30194D01*
Y23996D02*
X20400D01*
Y30196D01*
X19400Y31196D02*
X20400Y30196D01*
X21602Y31196D02*
X27400D01*
X20600Y30194D02*
X21602Y31196D01*
X20600Y23996D02*
Y30194D01*
Y23996D02*
X28400D01*
Y30196D01*
X27400Y31196D02*
X28400Y30196D01*
X29602Y31196D02*
X35400D01*
X28600Y30194D02*
X29602Y31196D01*
X28600Y23996D02*
Y30194D01*
Y23996D02*
X36400D01*
Y30196D01*
X35400Y31196D02*
X36400Y30196D01*
M02*
