%FSLAX42Y42*%
%MOMM*%
G71*
G01*
G75*
G04 Layer_Color=16711935*
%ADD10R,1.30X0.60*%
%ADD11R,1.40X1.50*%
%ADD12R,3.00X2.50*%
%ADD13R,3.20X1.05*%
%ADD14R,8.30X10.45*%
%ADD15R,5.40X2.90*%
%ADD16R,5.40X3.00*%
%ADD17R,2.79X3.81*%
%ADD18C,0.31*%
%ADD19C,0.35*%
%ADD20C,0.25*%
%ADD21C,2.00*%
%ADD22C,1.50*%
%ADD23C,0.50*%
%ADD24C,1.00*%
%ADD25O,0.31X2.00*%
%ADD26R,1.50X1.40*%
%ADD27R,1.10X2.60*%
%ADD28R,1.40X1.10*%
%ADD29R,2.60X1.10*%
%ADD30R,3.30X1.10*%
%ADD31R,1.50X5.00*%
%ADD32O,1.27X7.62*%
%ADD33C,2.50*%
%ADD34C,3.00*%
%ADD35C,1.50*%
%ADD36R,1.50X1.50*%
%ADD37C,7.62*%
%ADD38C,1.90*%
%ADD39R,1.90X1.90*%
%ADD40C,1.20*%
%ADD41R,7.00X3.00*%
%ADD42C,4.50*%
%ADD43C,4.70*%
%ADD44R,1.70X1.70*%
%ADD45C,1.70*%
%ADD46C,0.80*%
%ADD47R,48.26X10.16*%
%ADD48R,1.50X0.80*%
%ADD49R,1.60X1.70*%
%ADD50R,3.20X2.70*%
%ADD51R,3.40X1.25*%
%ADD52R,8.50X10.65*%
%ADD53R,5.60X3.10*%
%ADD54R,5.60X3.20*%
%ADD55R,3.00X4.01*%
%ADD56O,0.51X2.20*%
%ADD57R,1.70X1.60*%
%ADD58R,1.30X2.80*%
%ADD59R,1.60X1.30*%
%ADD60R,2.80X1.30*%
%ADD61R,3.50X1.30*%
%ADD62R,1.70X5.20*%
%ADD63O,1.47X7.82*%
%ADD64C,2.70*%
%ADD65C,3.20*%
%ADD66C,1.70*%
%ADD67R,1.70X1.70*%
%ADD68C,7.82*%
%ADD69C,2.10*%
%ADD70R,2.10X2.10*%
%ADD71C,1.40*%
%ADD72R,7.20X3.20*%
%ADD73C,4.70*%
%ADD74C,4.90*%
%ADD75R,1.90X1.90*%
%ADD76C,1.90*%
%ADD77C,1.00*%
%ADD78C,0.10*%
D20*
X18850Y21378D02*
Y15178D01*
X16180D02*
X18850D01*
X16180Y15928D02*
Y15178D01*
X15930Y15928D02*
X16180D01*
X15930D02*
Y15168D01*
X15740Y14978D01*
X11300D02*
X15740D01*
X11100Y15178D02*
X11300Y14978D01*
X11100Y15928D02*
Y15178D01*
X10850Y15928D02*
X11100D01*
X10850D02*
Y15178D01*
X10250D02*
X10850D01*
X10250Y21378D02*
Y15178D01*
Y21378D02*
X18850D01*
Y14778D02*
Y8578D01*
X16180D02*
X18850D01*
X16180Y9328D02*
Y8578D01*
X15930Y9328D02*
X16180D01*
X15930D02*
Y8568D01*
X15740Y8378D01*
X11300D02*
X15740D01*
X11100Y8578D02*
X11300Y8378D01*
X11100Y9328D02*
Y8578D01*
X10850Y9328D02*
X11100D01*
X10850D02*
Y8578D01*
X10250D02*
X10850D01*
X10250Y14778D02*
Y8578D01*
Y14778D02*
X18850D01*
X27650Y21378D02*
Y15178D01*
X24980D02*
X27650D01*
X24980Y15928D02*
Y15178D01*
X24730Y15928D02*
X24980D01*
X24730D02*
Y15168D01*
X24540Y14978D01*
X20100D02*
X24540D01*
X19900Y15178D02*
X20100Y14978D01*
X19900Y15928D02*
Y15178D01*
X19650Y15928D02*
X19900D01*
X19650D02*
Y15178D01*
X19050D02*
X19650D01*
X19050Y21378D02*
Y15178D01*
Y21378D02*
X27650D01*
Y14778D02*
Y8578D01*
X24980D02*
X27650D01*
X24980Y9328D02*
Y8578D01*
X24730Y9328D02*
X24980D01*
X24730D02*
Y8568D01*
X24540Y8378D01*
X20100D02*
X24540D01*
X19900Y8578D02*
X20100Y8378D01*
X19900Y9328D02*
Y8578D01*
X19650Y9328D02*
X19900D01*
X19650D02*
Y8578D01*
X19050D02*
X19650D01*
X19050Y14778D02*
Y8578D01*
Y14778D02*
X27650D01*
X36450Y21378D02*
Y15178D01*
X33780D02*
X36450D01*
X33780Y15928D02*
Y15178D01*
X33530Y15928D02*
X33780D01*
X33530D02*
Y15168D01*
X33340Y14978D01*
X28900D02*
X33340D01*
X28700Y15178D02*
X28900Y14978D01*
X28700Y15928D02*
Y15178D01*
X28450Y15928D02*
X28700D01*
X28450D02*
Y15178D01*
X27850D02*
X28450D01*
X27850Y21378D02*
Y15178D01*
Y21378D02*
X36450D01*
Y14778D02*
Y8578D01*
X33780D02*
X36450D01*
X33780Y9328D02*
Y8578D01*
X33530Y9328D02*
X33780D01*
X33530D02*
Y8568D01*
X33340Y8378D01*
X28900D02*
X33340D01*
X28700Y8578D02*
X28900Y8378D01*
X28700Y9328D02*
Y8578D01*
X28450Y9328D02*
X28700D01*
X28450D02*
Y8578D01*
X27850D02*
X28450D01*
X27850Y14778D02*
Y8578D01*
Y14778D02*
X36450D01*
D78*
X10250Y21801D02*
G03*
X10475Y21576I225J0D01*
G01*
X25075D02*
G03*
X25300Y21801I0J225D01*
G01*
X12250Y32276D02*
G03*
X12025Y32051I0J-225D01*
G01*
X11400Y31426D02*
G03*
X12025Y32051I0J625D01*
G01*
X10475Y31426D02*
G03*
X10250Y31201I0J-225D01*
G01*
X25300D02*
G03*
X25075Y31426I-225J0D01*
G01*
X23522Y32051D02*
G03*
X24147Y31426I625J0D01*
G01*
X23522Y32051D02*
G03*
X23297Y32276I-225J0D01*
G01*
X10475Y21576D02*
X25075D01*
X25300Y31201D02*
Y21801D01*
X12250Y32276D02*
X23297D01*
X10475Y31426D02*
X11400D01*
X10250Y31201D02*
Y21801D01*
X24147Y31426D02*
X25072D01*
X25500Y21801D02*
G03*
X25725Y21576I225J0D01*
G01*
X40325D02*
G03*
X40550Y21801I0J225D01*
G01*
X27500Y32276D02*
G03*
X27275Y32051I0J-225D01*
G01*
X26650Y31426D02*
G03*
X27275Y32051I0J625D01*
G01*
X25725Y31426D02*
G03*
X25500Y31201I0J-225D01*
G01*
X40550D02*
G03*
X40325Y31426I-225J0D01*
G01*
X38772Y32051D02*
G03*
X39397Y31426I625J0D01*
G01*
X38772Y32051D02*
G03*
X38547Y32276I-225J0D01*
G01*
X25725Y21576D02*
X40325D01*
X40550Y31201D02*
Y21801D01*
X27500Y32276D02*
X38547D01*
X25725Y31426D02*
X26650D01*
X25500Y31201D02*
Y21801D01*
X39397Y31426D02*
X40322D01*
M02*
